<svg xmlns="http://www.w3.org/2000/svg" xmlns:xlink="http://www.w3.org/1999/xlink" width="1235.843" height="817.849" viewBox="0 0 1235.843 817.849">
  <defs>
    <linearGradient id="linear-gradient" x1="0.422" y1="0.17" x2="0.604" y2="0.94" gradientUnits="objectBoundingBox">
      <stop offset="0" stop-color="#fa79b6"/>
      <stop offset="1" stop-color="#ffbfab"/>
    </linearGradient>
    <linearGradient id="linear-gradient-2" x1="0.049" y1="0.743" x2="0.944" y2="0.26" gradientUnits="objectBoundingBox">
      <stop offset="0" stop-color="#3474fd"/>
      <stop offset="0.48" stop-color="#9486f8"/>
      <stop offset="1" stop-color="#f2a5fe"/>
    </linearGradient>
    <linearGradient id="linear-gradient-3" x1="0.694" y1="0.821" x2="0.343" y2="0.054" gradientUnits="objectBoundingBox">
      <stop offset="0" stop-color="#1c8ef4"/>
      <stop offset="1" stop-color="#00cfdd"/>
    </linearGradient>
    <linearGradient id="linear-gradient-4" x1="0.422" y1="0.169" x2="0.604" y2="0.94" xlink:href="#linear-gradient"/>
    <linearGradient id="linear-gradient-5" x1="0.391" y1="0.831" x2="0.678" y2="0.078" xlink:href="#linear-gradient-3"/>
    <linearGradient id="linear-gradient-6" x1="0.676" y1="0.104" x2="0.346" y2="0.846" gradientUnits="objectBoundingBox">
      <stop offset="0" stop-color="#6d6afe"/>
      <stop offset="1" stop-color="#3fb0f7"/>
    </linearGradient>
    <linearGradient id="linear-gradient-7" x1="0.289" y1="0.901" x2="0.719" y2="0.085" gradientUnits="objectBoundingBox">
      <stop offset="0" stop-color="#965cf2"/>
      <stop offset="1" stop-color="#ff8adc"/>
    </linearGradient>
    <linearGradient id="linear-gradient-8" x1="0.265" y1="0.331" x2="0.421" y2="0.616" xlink:href="#linear-gradient-7"/>
    <linearGradient id="linear-gradient-9" x1="0.361" y1="0.769" x2="0.782" y2="-0.044" xlink:href="#linear-gradient-7"/>
    <linearGradient id="linear-gradient-10" x1="0.45" y1="0.295" x2="0.608" y2="0.876" gradientUnits="objectBoundingBox">
      <stop offset="0" stop-color="#d1e8ff"/>
      <stop offset="1" stop-color="#edf6ff"/>
    </linearGradient>
    <linearGradient id="linear-gradient-11" x1="0.779" y1="0.583" x2="-0.063" y2="0.333" xlink:href="#linear-gradient-6"/>
    <linearGradient id="linear-gradient-12" x1="0.621" y1="0.038" x2="0.413" y2="0.803" gradientUnits="objectBoundingBox">
      <stop offset="0" stop-color="#d870ac"/>
      <stop offset="1" stop-color="#58469c"/>
    </linearGradient>
    <linearGradient id="linear-gradient-13" x1="0.621" y1="0.039" x2="0.414" y2="0.804" xlink:href="#linear-gradient-12"/>
    <linearGradient id="linear-gradient-14" x1="0.448" y1="0.935" x2="0.569" y2="-0.077" gradientUnits="objectBoundingBox">
      <stop offset="0" stop-color="#e46aa8"/>
      <stop offset="0.43" stop-color="#d985b8"/>
      <stop offset="1" stop-color="#f9b29d"/>
    </linearGradient>
    <linearGradient id="linear-gradient-15" x1="0.242" y1="0.117" x2="0.494" y2="0.745" gradientUnits="objectBoundingBox">
      <stop offset="0" stop-color="#ff66bc"/>
      <stop offset="0.56" stop-color="#ff8adc"/>
      <stop offset="1" stop-color="#ffbba8"/>
    </linearGradient>
    <linearGradient id="linear-gradient-16" x1="0.401" y1="0.47" x2="0.734" y2="0.57" xlink:href="#linear-gradient-15"/>
    <linearGradient id="linear-gradient-17" x1="0.483" y1="0.879" x2="0.515" y2="0.156" xlink:href="#linear-gradient-7"/>
    <linearGradient id="linear-gradient-18" x1="0.45" y1="0.301" x2="0.572" y2="0.787" gradientUnits="objectBoundingBox">
      <stop offset="0" stop-color="#8e7bfd"/>
      <stop offset="1" stop-color="#72a8f9"/>
    </linearGradient>
    <linearGradient id="linear-gradient-19" x1="0.426" y1="0.762" x2="0.842" y2="-0.04" xlink:href="#linear-gradient-7"/>
    <linearGradient id="linear-gradient-20" x1="0.525" y1="0.749" x2="0.465" y2="0.153" gradientUnits="objectBoundingBox">
      <stop offset="0" stop-color="#fa5db1"/>
      <stop offset="1" stop-color="#febfbf"/>
    </linearGradient>
  </defs>
  <g id="手机部分" transform="translate(-280.516 -274.91)">
    <g id="点缀" transform="translate(280.516 274.91)">
      <path id="路径_2" data-name="路径 2" d="M264.241,378.451h86.272a8.213,8.213,0,0,1,8.189,8.19v66.018a8.214,8.214,0,0,1-8.189,8.19H264.241a8.214,8.214,0,0,1-8.19-8.19V386.641A8.214,8.214,0,0,1,264.241,378.451Z" transform="translate(-256.051 -356.547)" fill-rule="evenodd" opacity="0.5" fill="url(#linear-gradient)"/>
      <path id="路径_3" data-name="路径 3" d="M1668.343,338.206h92.081a6.427,6.427,0,0,1,6.409,6.409v51.669a6.428,6.428,0,0,1-6.409,6.409h-92.081a6.428,6.428,0,0,1-6.41-6.409V344.615A6.433,6.433,0,0,1,1668.343,338.206Z" transform="translate(-896.775 -338.206)" fill-rule="evenodd" opacity="0.5" fill="url(#linear-gradient-2)"/>
      <path id="路径_4" data-name="路径 4" d="M2473.879,1550.932l-12.035-6.633a10.524,10.524,0,0,1-4.455-5.707l-4.62-14.622a10.33,10.33,0,0,0-4.5-5.739c-1.788-.988-3.491-.845-3.983,1.049l-2.765,10.537c-.447,1.677-2.035,2.123-4,1.033l-12.012-6.661c-4.312-2.386-5.676,2.718-1.961,7.451l10.288,13.1c1.66,2.117,2.483,4.7,2.036,6.419l-2.81,10.468c-.766,2.894,1.947,7.281,4.736,8.822a3.44,3.44,0,0,0,2.54.473l9.127-2.4a3.506,3.506,0,0,1,2.561.5,9.143,9.143,0,0,1,2.7,2.408L2465,1584.552a9.034,9.034,0,0,0,2.684,2.415c2.779,1.538,5.037-.1,3.761-4.1l-4.642-14.613c-.767-2.382-.272-4.242,1.206-4.627l9.149-2.346C2480.458,1560.43,2478.211,1553.327,2473.879,1550.932Z" transform="translate(-1242.894 -875.896)" fill-rule="evenodd" opacity="0.5" fill="url(#linear-gradient-3)"/>
      <path id="路径_5" data-name="路径 5" d="M1591.676,1362.29h69.363a6.6,6.6,0,0,1,6.585,6.585v53.078a6.6,6.6,0,0,1-6.585,6.585h-69.363a6.6,6.6,0,0,1-6.585-6.585v-53.078A6.6,6.6,0,0,1,1591.676,1362.29Z" transform="translate(-861.754 -805.101)" fill-rule="evenodd" opacity="0.5" fill="url(#linear-gradient-4)"/>
    </g>
    <g id="手机" transform="translate(302.485 275.164)">
      <g id="组_7" data-name="组 7" transform="translate(61.203)">
        <g id="组_3" data-name="组 3">
          <path id="路径_6" data-name="路径 6" d="M979.542,389.156l5.739.008-.014,11.477-5.739-.008.014-11.477ZM848.224,418.622l4.981-2.9-2.886-4.96c-1.653.975-3.32,1.933-4.98,2.9l2.885,4.962Zm9.943-5.79,9.916-5.783-2.894-4.955c-3.3,1.936-6.611,3.853-9.913,5.782l2.891,4.957Zm14.872-8.677q4.962-2.883,9.913-5.789l-2.9-4.954q-4.952,2.9-9.91,5.787l2.894,4.955Zm14.867-8.683,9.909-5.79-2.892-4.957-9.91,5.791,2.893,4.956Zm14.866-8.685c3.3-1.935,6.61-3.855,9.912-5.787l-2.894-4.955q-4.954,2.9-9.913,5.787l2.895,4.955Zm14.868-8.678q4.956-2.89,9.915-5.776l-2.886-4.96-9.92,5.779,2.891,4.957Zm14.872-8.661,9.924-5.764-2.88-4.965-9.927,5.766,2.883,4.962Zm14.891-8.642,9.933-5.744-2.873-4.969-9.939,5.749,2.879,4.964Zm14.9-8.611c3.319-1.892,6.624-3.814,9.937-5.716L969.4,341.5c-3.334,1.818-6.648,3.84-9.956,5.727l2.866,4.972Zm14.178-7.733a3.1,3.1,0,0,1,1.238.012l.217.067a2.227,2.227,0,0,1,.293.142l.2.14a2.648,2.648,0,0,1,.3.3,5.418,5.418,0,0,1,.864,3.257l0,.6,5.739.008v-.62c-.04-4.9-2.476-9.385-7.818-9.692a9.689,9.689,0,0,0-1.968.124l.937,5.662Zm3.1,10.258,5.739.008-.015,11.478-5.739-.008.015-11.477Zm-.022,17.217,5.739.008-.013,11.478-5.739-.008Z" transform="translate(-607.788 -338.671)" fill="#fff" fill-rule="evenodd"/>
          <path id="路径_7" data-name="路径 7" d="M504.965,613.667l9.909-5.79-2.894-4.955-9.91,5.79,2.895,4.956ZM414.608,831.241l.009-6.587-5.739-.008-.009,6.587,5.739.008Zm.017-12.327-5.739-.008.015-11.478,5.739.008-.015,11.478Zm.022-17.217-5.739-.008.014-11.478,5.739.008-.014,11.477Zm.022-17.217-5.739-.007L408.944,773l5.739.008-.015,11.478Zm.021-17.217-5.739-.008.015-11.478,5.739.008-.015,11.478Zm.022-17.217-5.739-.008.014-11.478,5.739.008-.014,11.478Zm.021-17.217-5.739-.008.014-11.478,5.739.008-.014,11.478Zm.021-17.217-5.739-.008.014-11.478,5.739.008-.014,11.478Zm.021-17.217-5.739-.008.014-11.478,5.739.008-.014,11.478Zm.021-17.217-5.739-.008.006-5.74a19.892,19.892,0,0,1,1.2-6.578l5.406,1.93a14.07,14.07,0,0,0-.863,4.657l-.007,5.739Zm3.112-14.882a16.161,16.161,0,0,1,5.076-5.034l-.008,0,2.568-1.474-2.859-4.976c-.852.484-1.735.974-2.573,1.476a21.748,21.748,0,0,0-6.973,6.807l4.768,3.2Zm12.613-9.364q4.979-2.859,9.95-5.735l-2.871-4.969-9.939,5.729,2.86,4.976Zm14.92-8.608c3.31-1.919,6.635-3.82,9.934-5.756l-2.88-4.963c-3.3,1.927-6.62,3.833-9.929,5.753l2.875,4.966Zm14.9-8.638,9.923-5.77-2.888-4.96q-4.957,2.887-9.92,5.768l2.884,4.961Zm14.883-8.659c3.292-1.908,6.67-3.812,9.917-5.783l-2.891-4.957c-3.308,1.921-6.6,3.861-9.914,5.78l2.888,4.96Zm14.874-8.675c3.287-1.948,6.609-3.864,9.911-5.789l-2.891-4.957c-3.3,1.924-6.623,3.841-9.911,5.789Z" transform="translate(-408.869 -459.102)" fill="#fff" fill-rule="evenodd"/>
          <path id="路径_8" data-name="路径 8" d="M1215.276,707.308q-4.964,2.874-9.937,5.74l2.874,4.967c3.32-1.9,6.631-3.825,9.94-5.741l-2.877-4.966Zm-51.77-247.135,4.221-2.464-2.891-4.957-4.224,2.466,2.894,4.955Zm9.176-5.357c3.3-1.93,6.6-3.883,9.914-5.777l-2.888-4.96c-3.317,1.9-6.622,3.851-9.92,5.782l2.894,4.955Zm14.874-8.665c3.3-1.921,6.622-3.83,9.92-5.764l-2.878-4.966-9.93,5.77,2.888,4.96Zm14.885-8.643,9.932-5.748-2.873-4.969c-3.308,1.923-6.627,3.828-9.936,5.751l2.877,4.966Zm14.9-8.616,9.942-5.724-2.859-4.977-9.952,5.73,2.869,4.971Zm14.695-8.412a4.421,4.421,0,0,1,2.765-.47l.179.056a1.931,1.931,0,0,1,.6.367l.174.182a4.158,4.158,0,0,1,.8,2l5.675-.86c-1.1-6.584-6.58-9.185-12.56-6.5l2.367,5.228Zm4.61,7.433,5.739.006-.012,11.478-5.739-.006.012-11.478Zm-.016,17.217,5.739.006-.012,11.478-5.739-.006.011-11.478Zm-.022,17.217,5.739.006-.012,11.478-5.738-.006.011-11.478Zm-.016,17.216,5.739.007-.012,11.478-5.739-.006.012-11.478Zm-.016,17.217,5.739.007-.012,11.478-5.739-.006.011-11.478ZM1236.556,514l5.739.007-.012,11.478-5.739-.006.012-11.478Zm-.016,17.217,5.739.006-.012,11.478-5.739-.006.012-11.478Zm-.016,17.217,5.739.007-.012,11.478-5.739-.006.012-11.478Zm-.022,17.217,5.739.006-.012,11.478-5.739-.006.012-11.478Zm-.016,17.217,5.739.007-.012,11.478-5.739-.006.012-11.478Zm-.021,17.217,5.739.006-.012,11.478-5.739-.006.013-11.478Zm-.016,17.217,5.739.007-.012,11.478-5.739-.006.013-11.478Zm-.016,17.217,5.739.006L1242.158,646l-5.739-.006.012-11.478Zm-.016,17.217,5.739.007-.011,11.478-5.739-.006.011-11.478Zm-.022,17.217,5.739.006-.011,11.477-5.74-.006.012-11.477Zm-.022,17.128a18,18,0,0,1-3.33,9.107l4.7,3.288a25.346,25.346,0,0,0,3.723-7.966,18.8,18.8,0,0,0,.641-4.247l-5.736-.182Zm-6.64,12.733a12.42,12.42,0,0,1-1.538,1.065c-2.656,1.5-5.3,3.04-7.944,4.564l2.868,4.971c2.3-1.3,4.576-2.641,6.871-3.947.339-.2.732-.445,1.075-.617l.143-.083-.059.034a20.246,20.246,0,0,0,2.183-1.516Z" transform="translate(-751.472 -373.097)" fill="#fff" fill-rule="evenodd"/>
        </g>
        <g id="组_6" data-name="组 6" transform="translate(90.898 5.993)">
          <g id="组_4" data-name="组 4">
            <path id="路径_9" data-name="路径 9" d="M703.009,367.534c-7.208,3.988-11.421,8.651-16.1,15.3.056-1.161.113,3.1.074-3.484s3.74-17.217-1.41-22.544c-2.04-2.111-11.981-5.99-14.369-6.6-4.582-1.178-9.894-.383-15.565,2.718-8.626,4.717-16.435,13.9-22.1,24.937-5.682,11.064-9.21,29.494-9.2,36.155s.034,2.3.1,3.42c-4.8-1.442-9.11-1.423-16.523,2.677s-16.753,14.221-22.546,25.458c-5.806,11.266-9.453,24.469-9.48,36.764-.022,9.6,2.168,17.224,5.893,22.5,3.753,5.321,11.01,8.462,16.152,10.168,14.747,5.123,43.177-24.776,58.179-33.267q23.878-13.517,47.512-26.881c8.587-4.857,16.283-14.117,21.8-25.172,5.5-11.028,8.818-23.883,8.707-35.865-.065-7,5.053-17.509-1.572-22.539C722.254,363.461,711.255,362.973,703.009,367.534Z" transform="translate(-575.883 -349.683)" fill="#0b8ee6" fill-rule="evenodd"/>
            <path id="路径_10" data-name="路径 10" d="M718.332,374.189c-7.209,3.988-11.422,8.651-16.1,15.3.057-1.161.113,3.1.075-3.484s-3.6-20.962-9.262-25.745-13.457-5.4-22.083-.685-16.436,13.9-22.1,24.937c-5.683,11.064-9.211,29.494-9.2,36.154s.034,2.3.1,3.421c-4.8-1.442-9.109-1.423-16.522,2.678s-16.753,14.22-22.545,25.458c-5.806,11.264-9.454,24.414-9.481,36.765s3.572,21.547,9.38,26.389c5.791,4.827,13.821,5.283,22.649.286q24.19-13.69,48.195-27.271,23.878-13.516,47.512-26.881c8.586-4.858,16.284-14.118,21.8-25.172,5.5-11.028,8.819-23.882,8.707-35.866s-3.625-20.891-9.236-25.638S725.541,370.2,718.332,374.189Z" transform="translate(-582.866 -352.715)" fill-rule="evenodd" fill="url(#linear-gradient-5)"/>
          </g>
          <g id="组_5" data-name="组 5" transform="translate(48.047 45.521)">
            <path id="路径_11" data-name="路径 11" d="M696.012,508.862l14.776-8.526L687.55,540.582l-23.386-13.328,14.769-8.531-.041-37.895,17.08-9.861Z" transform="translate(-664.163 -450.478)" fill="#fff" fill-rule="evenodd"/>
            <path id="路径_12" data-name="路径 12" d="M753.721,465.042l-14.776,8.526,23.238-40.247,23.386,13.329L770.8,455.18l.041,37.9-17.079,9.861Z" transform="translate(-698.245 -433.321)" fill="#fff" fill-rule="evenodd"/>
          </g>
        </g>
      </g>
      <g id="组_52" data-name="组 52" transform="translate(0 31.982)">
        <g id="组_9" data-name="组 9" transform="translate(91.386 66.799)">
          <path id="路径_13" data-name="路径 13" d="M471.66,1666.586,699.4,1536.514c8.453-3.863,20.872-7.505,29.162-2.454l21.211,12.923c4.268,2.6,18.3,11.227,8.914,16.331-27.611,15.014-204.029,118.092-232.067,133.343-5.3,2.885-13.06,3.928-21.2,3.251-8.107-.673-16.525-2.868-22.964-6.838l-8.472-5.226c-5.99-3.694-9.307-7.728-9.626-11.6C464.042,1672.458,466.472,1668.953,471.66,1666.586Z" transform="translate(-464.327 -981.291)" fill="#955cf1" fill-rule="evenodd" opacity="0.25"/>
          <g id="组_8" data-name="组 8" transform="translate(12.531)">
            <path id="路径_14" data-name="路径 14" d="M488.191,1190.661c.032,11.083,3.984,18.885,10.3,22.555l10.028,6.028c34.4-14.677,21.633-188.961,23.729-238.509L521.689,720.709c8.881-15.515,43.048-29.055,35.073-60.739l100.823-47.185c4.476-3.044,122.132-71.164,101.013-83.938-3.532-2.136-7.028-4.288-10.516-6.315-7.8-4.612-17.736-1.76-25.034,2.447h0L522.427,640.026c-19.691,11.342-35.137,38.789-35.076,60.736Z" transform="translate(-487.352 -520.169)" fill="#303a7d" fill-rule="evenodd"/>
            <path id="路径_15" data-name="路径 15" d="M777.646,556.655c-.031-10.865-3.794-18.581-9.894-22.339-6.423-3.96-15.438-3.532-25.409,2.225L541.725,651.581c-19.416,11.211-35.137,38.43-35.074,60.739l.836,489.9c.064,22.306,15.888,31.323,35.307,20.114l200.616-115.04c19.441-11.222,35.139-38.432,35.076-60.738Z" transform="translate(-496.147 -525.432)" fill-rule="evenodd" fill="url(#linear-gradient-6)"/>
          </g>
        </g>
        <g id="组_10" data-name="组 10" transform="translate(136.75 108.53)">
          <path id="路径_16" data-name="路径 16" d="M918.943,602.452a1.864,1.864,0,0,1-.351-3.711l19.4-1.888a1.864,1.864,0,0,1,1.634,3.016L921.276,622.94a1.867,1.867,0,0,1-2.922-2.324l15.613-19.627Z" transform="translate(-715.951 -596.845)" fill="aqua" fill-rule="evenodd"/>
          <path id="路径_17" data-name="路径 17" d="M565.839,793.785a1.588,1.588,0,0,0-.147-.755.35.35,0,0,0-.1-.112.327.327,0,0,0-.151-.027,1.576,1.576,0,0,0-.734.251l-11.666,6.878a5.752,5.752,0,0,0-2.538,4.386l.077,14.624a1.58,1.58,0,0,0,.149.758.342.342,0,0,0,.1.107.265.265,0,0,0,.15.032,1.6,1.6,0,0,0,.743-.257l11.66-6.87a5.234,5.234,0,0,0,1.777-1.909,5.161,5.161,0,0,0,.756-2.479l-.078-14.625ZM559.72,818.24l5.084-3a8.546,8.546,0,0,0,3.942-6.841l-.042-8.007,5.16-3.039a1.589,1.589,0,0,1,.744-.257.365.365,0,0,1,.151.028.328.328,0,0,1,.093.111A1.564,1.564,0,0,1,575,798l.078,14.622A5.766,5.766,0,0,1,572.548,817l-11.66,6.87a1.6,1.6,0,0,1-.743.258.274.274,0,0,1-.151-.032.344.344,0,0,1-.1-.107,1.593,1.593,0,0,1-.149-.759l-.028-4.994Zm8.966-21.119,3.757-2.217a4.377,4.377,0,0,1,2.164-.635,3.1,3.1,0,0,1,1.557.4,3.141,3.141,0,0,1,1.138,1.149,4.327,4.327,0,0,1,.53,2.167l.078,14.622a8.029,8.029,0,0,1-1.135,3.91,8.116,8.116,0,0,1-2.807,2.932l-11.66,6.877a4.38,4.38,0,0,1-2.163.635,3.1,3.1,0,0,1-1.556-.4,3.035,3.035,0,0,1-1.14-1.146,4.359,4.359,0,0,1-.529-2.166l-.018-3.34-3.756,2.215a4.378,4.378,0,0,1-2.163.634,3.09,3.09,0,0,1-1.556-.4,3.046,3.046,0,0,1-1.141-1.146,4.359,4.359,0,0,1-.529-2.166l-.077-14.623a8.552,8.552,0,0,1,3.935-6.841L563.28,790.7a4.391,4.391,0,0,1,2.164-.635,3.046,3.046,0,0,1,2.7,1.552,4.342,4.342,0,0,1,.528,2.163Z" transform="translate(-547.678 -684.903)" fill="aqua" fill-rule="evenodd"/>
        </g>
        <g id="组_15" data-name="组 15" transform="translate(126.224 589.76)">
          <g id="组_11" data-name="组 11" transform="translate(208.55)">
            <path id="路径_18" data-name="路径 18" d="M944.417,1490.853c-.023-8.49-6.037-11.925-13.432-7.654l-6.12,3.52c-7.387,4.267-13.368,14.625-13.345,23.115l.318,4.7c.024,8.489,6.046,11.92,13.434,7.655l6.118-3.521c7.4-4.271,13.37-14.626,13.346-23.116Z" transform="translate(-911.521 -1481.363)" fill="aqua" fill-rule="evenodd" opacity="0.5"/>
            <path id="路径_19" data-name="路径 19" d="M923.858,1520.128l8.539-4.931a.938.938,0,0,1,1.5.858,2.438,2.438,0,0,1-1.119,1.945l-9.1,5.253a1.519,1.519,0,0,1-2.443-1.4l-.03-10.435a2.4,2.4,0,0,1,1.124-1.942.934.934,0,0,1,1.5.858l.028,9.79Zm17.37-30.081-8.515,4.917a.938.938,0,0,1-1.506-.861,2.4,2.4,0,0,1,1.124-1.942l9.076-5.24a1.512,1.512,0,0,1,2.442,1.4l.03,10.449a2.437,2.437,0,0,1-1.119,1.944.942.942,0,0,1-1.505-.86Z" transform="translate(-915.935 -1483.757)" fill="aqua" fill-rule="evenodd"/>
          </g>
          <g id="组_12" data-name="组 12" transform="translate(0 120.748)">
            <path id="路径_20" data-name="路径 20" d="M561.233,1712.713c-.024-8.491-6.037-11.926-13.433-7.654l-6.119,3.519c-7.387,4.267-13.368,14.625-13.344,23.116l.317,4.7c.024,8.489,6.045,11.921,13.434,7.655l6.119-3.521c7.4-4.271,13.369-14.625,13.345-23.114Z" transform="translate(-528.337 -1703.222)" fill="aqua" fill-rule="evenodd" opacity="0.5"/>
            <path id="路径_21" data-name="路径 21" d="M554.039,1722.128l2.147-1.267a3.532,3.532,0,0,1,1.744-.507,2.58,2.58,0,0,1,1.31.336,2.612,2.612,0,0,1,.955.965,3.523,3.523,0,0,1,.431,1.745l.057,10.527a6.113,6.113,0,0,1-.868,3,6.265,6.265,0,0,1-2.155,2.246l-8.4,4.952a3.526,3.526,0,0,1-1.743.507,2.608,2.608,0,0,1-1.306-.338,2.571,2.571,0,0,1-.961-.964,3.536,3.536,0,0,1-.43-1.743l-.009-1.756-2.144,1.264a3.475,3.475,0,0,1-1.746.509,2.569,2.569,0,0,1-2.267-1.3,3.521,3.521,0,0,1-.43-1.743l-.055-10.527a6.113,6.113,0,0,1,.866-3,6.281,6.281,0,0,1,2.15-2.248l8.4-4.952a3.542,3.542,0,0,1,1.744-.507,2.565,2.565,0,0,1,2.266,1.305,3.535,3.535,0,0,1,.429,1.743l.01,1.755Zm-6.449,16.066.017,3.379c0,.094.01.266-.079.274a.924.924,0,0,0,.336-.134l8.4-4.947a3.783,3.783,0,0,0,1.636-2.831l-.056-10.526a1.3,1.3,0,0,0-.023-.252,1.479,1.479,0,0,0-.234.11l-3.529,2.079.029,5.549a6.135,6.135,0,0,1-.866,3,6.244,6.244,0,0,1-2.155,2.252l-3.475,2.049Zm3.635-18.064a1.4,1.4,0,0,0-.227.106l-8.4,4.952a3.766,3.766,0,0,0-1.64,2.831l.055,10.527c0,.094.01.264-.078.274a.929.929,0,0,0,.335-.134l8.4-4.947a3.442,3.442,0,0,0,1.141-1.237,3.347,3.347,0,0,0,.494-1.594l-.056-10.529A1.512,1.512,0,0,0,551.224,1720.131Z" transform="translate(-532.819 -1709.65)" fill="aqua" fill-rule="evenodd"/>
          </g>
          <g id="组_14" data-name="组 14" transform="translate(112.032 55.841)">
            <path id="路径_22" data-name="路径 22" d="M767.078,1593.453c-.023-8.49-6.036-11.925-13.432-7.654l-6.12,3.519c-7.386,4.267-13.369,14.625-13.345,23.116l.318,4.7c.025,8.49,6.045,11.921,13.433,7.655l6.119-3.52c7.4-4.27,13.37-14.626,13.346-23.115Z" transform="translate(-734.182 -1583.963)" fill="aqua" fill-rule="evenodd" opacity="0.5"/>
            <g id="组_13" data-name="组 13" transform="translate(5.763 6.256)">
              <path id="路径_23" data-name="路径 23" d="M775.933,1624.213,771.8,1626.6l0-1.014c0-.96-.7-1.3-1.489-.849a3.3,3.3,0,0,0-1.487,2.569l.014,5.451c0,.96.709,1.3,1.5.844a3.288,3.288,0,0,0,1.482-2.563l0-1.014,4.135-2.388a3.393,3.393,0,0,0,1.48-2.573A.919.919,0,0,0,775.933,1624.213Z" transform="translate(-755.73 -1608.477)" fill="aqua" fill-rule="evenodd"/>
              <path id="路径_24" data-name="路径 24" d="M772.124,1609.981l-11.613,6.705.01,3.367,11.613-6.7a3.307,3.307,0,0,0,1.48-2.573C773.611,1609.867,772.914,1609.524,772.124,1609.981Z" transform="translate(-751.944 -1601.984)" fill="aqua" fill-rule="evenodd"/>
              <path id="路径_25" data-name="路径 25" d="M746.331,1639.026a3.293,3.293,0,0,0-1.481,2.565c0,.907.655,1.34,1.49.858l10.683-6.168-.01-3.422Z" transform="translate(-744.806 -1612.503)" fill="aqua" fill-rule="evenodd"/>
              <path id="路径_26" data-name="路径 26" d="M746.261,1613.887l10.681-6.167-.009-3.413-10.682,6.168a3.206,3.206,0,0,0-1.481,2.563C744.773,1613.947,745.424,1614.372,746.261,1613.887Z" transform="translate(-744.77 -1599.49)" fill="aqua" fill-rule="evenodd"/>
              <path id="路径_27" data-name="路径 27" d="M746.3,1628.606l3.2-1.85,0,1.06c0,.916.7,1.259,1.49.8a3.207,3.207,0,0,0,1.487-2.524l-.015-5.5c0-.907-.662-1.274-1.5-.79a3.273,3.273,0,0,0-1.48,2.509l0,1.069-3.2,1.849a3.194,3.194,0,0,0-1.481,2.51C744.813,1628.709,745.463,1629.091,746.3,1628.606Z" transform="translate(-744.788 -1606.459)" fill="aqua" fill-rule="evenodd"/>
              <path id="路径_28" data-name="路径 28" d="M770.25,1605.043a3.4,3.4,0,0,0,1.48-2.573l0-1.014,4.134-2.387a3.375,3.375,0,0,0,1.48-2.563c0-.961-.7-1.3-1.49-.849l-4.134,2.387,0-1.015c0-.961-.7-1.3-1.49-.847a3.3,3.3,0,0,0-1.489,2.567l.016,5.442A.923.923,0,0,0,770.25,1605.043Z" transform="translate(-755.692 -1595.457)" fill="aqua" fill-rule="evenodd"/>
            </g>
          </g>
        </g>
        <g id="组_25" data-name="组 25" transform="translate(220.275 95.552)">
          <path id="路径_29" data-name="路径 29" d="M957.38,600.758c-.022-8.105-5.762-11.385-12.82-7.308-74.8,42.9-149.44,87.31-224.246,130.214-7.049,4.073-12.759,13.96-12.737,22.064L707.314,978.4l.13-.076-.131,115.008c.023,8.1,5.763,11.385,12.821,7.308,74.8-42.9,149.441-87.31,224.245-130.215,7.05-4.073,12.76-13.96,12.737-22.064l.265-232.672-.13.075Z" transform="translate(-703.955 -581.521)" fill="#303a7d" fill-rule="evenodd"/>
          <g id="组_18" data-name="组 18">
            <g id="组_16" data-name="组 16" transform="translate(0.318)">
              <path id="路径_30" data-name="路径 30" d="M1159.408,576.431l-8.515,4.917a.938.938,0,0,1-1.506-.861,2.4,2.4,0,0,1,1.125-1.943l9.076-5.24a1.511,1.511,0,0,1,2.442,1.4l.03,10.449a2.439,2.439,0,0,1-1.118,1.945.941.941,0,0,1-1.505-.86Z" transform="translate(-905.747 -573.001)" fill="blue" fill-rule="evenodd"/>
              <path id="路径_31" data-name="路径 31" d="M704.381,1533.913l8.539-4.93a.938.938,0,0,1,1.5.857,2.442,2.442,0,0,1-1.119,1.946l-9.1,5.253a1.519,1.519,0,0,1-2.443-1.4l-.03-10.435a2.4,2.4,0,0,1,1.125-1.942.934.934,0,0,1,1.5.858Z" transform="translate(-701.729 -1005.997)" fill="blue" fill-rule="evenodd"/>
            </g>
            <g id="组_17" data-name="组 17" transform="translate(0 141.358)">
              <path id="路径_32" data-name="路径 32" d="M703.915,840.642l.027,9.609a2.452,2.452,0,0,1-1.135,1.964,1.03,1.03,0,0,1-1.634-.936l-.028-9.9a3.937,3.937,0,0,1,.589-1.973,4.011,4.011,0,0,1,1.43-1.524l8.608-4.97a1.034,1.034,0,0,1,1.64.94,2.449,2.449,0,0,1-1.136,1.963Z" transform="translate(-701.144 -832.728)" fill="blue" fill-rule="evenodd"/>
              <path id="路径_33" data-name="路径 33" d="M1163.043,1260.3l-.027-9.583a2.42,2.42,0,0,1,1.132-1.967,1.03,1.03,0,0,1,1.639.939l.028,9.872a4.434,4.434,0,0,1-2.018,3.5l-8.6,4.963a1.025,1.025,0,0,1-1.634-.936,2.421,2.421,0,0,1,1.131-1.967Z" transform="translate(-907.333 -1022.241)" fill="blue" fill-rule="evenodd"/>
            </g>
          </g>
          <g id="组_24" data-name="组 24" transform="translate(8.686 43.174)">
            <path id="路径_34" data-name="路径 34" d="M958.941,661.086c-.023-7.836-5.571-11.006-12.4-7.064-72.305,41.471-144.462,84.4-216.775,125.877-6.815,3.938-12.335,13.5-12.313,21.329l-.355,286.236c.023,7.832,5.58,11,12.4,7.062,72.309-41.475,144.476-84.411,216.773-125.877,6.825-3.94,12.337-13.5,12.314-21.329Z" transform="translate(-717.103 -652.327)" fill="#fff" fill-rule="evenodd"/>
            <g id="组_21" data-name="组 21" transform="translate(34.454 77.774)">
              <g id="组_19" data-name="组 19" transform="translate(0 50.513)">
                <path id="路径_35" data-name="路径 35" d="M800.2,888.559c-9.857,2.607-18.674,14.271-19.7,26.054s6.142,19.221,16,16.614,18.675-14.272,19.7-26.055S810.056,885.952,800.2,888.559Z" transform="translate(-780.408 -888.038)" fill="#bc6de9" fill-rule="evenodd" opacity="0.2"/>
                <path id="路径_36" data-name="路径 36" d="M806.272,906.825c-5.315,1.405-10.069,7.694-10.619,14.047s3.312,10.363,8.625,8.957,10.069-7.694,10.618-14.047S811.586,905.419,806.272,906.825Z" transform="translate(-787.332 -896.472)" fill-rule="evenodd" fill="url(#linear-gradient-7)"/>
              </g>
              <g id="组_20" data-name="组 20" transform="translate(47.304)">
                <path id="路径_37" data-name="路径 37" d="M941.052,797.98c-.007-2.494-1.774-3.475-3.947-2.184l-65.859,37.355a8.829,8.829,0,0,0-3.922,6.858v4.935c.007,2.494,1.776,3.474,3.947,2.184l65.859-37.355a8.821,8.821,0,0,0,3.922-6.857Z" transform="translate(-867.324 -795.226)" fill="#bc6de9" fill-rule="evenodd" opacity="0.2"/>
                <path id="路径_38" data-name="路径 38" d="M910.862,866c0-1.473-1.048-2.052-2.331-1.289l-38.89,22.058a5.213,5.213,0,0,0-2.316,4.05v2.914c0,1.473,1.049,2.052,2.331,1.289l38.89-22.059a5.211,5.211,0,0,0,2.316-4.05Z" transform="translate(-867.324 -826.739)" fill="#bc6de9" fill-rule="evenodd" opacity="0.2"/>
              </g>
            </g>
            <g id="组_23" data-name="组 23" transform="translate(14.397 106.149)">
              <g id="组_22" data-name="组 22" transform="translate(41.183 75.961)">
                <path id="路径_39" data-name="路径 39" d="M958.138,1073.277l-52.273-86.345-26.4,95.875-26.824-32.65L819.225,1152.95Z" transform="translate(-819.225 -986.932)" fill-rule="evenodd" fill="url(#linear-gradient-8)"/>
                <path id="路径_40" data-name="路径 40" d="M887.69,998.061c-7.18,1.779-13.6,10.17-14.348,18.741s4.474,14.076,11.654,12.3,13.6-10.169,14.348-18.74S894.87,996.283,887.69,998.061Z" transform="translate(-843.857 -991.852)" fill="#ffdb59" fill-rule="evenodd"/>
              </g>
              <path id="路径_41" data-name="路径 41" d="M952.5,861.889c-.036-12.994-9.239-18.252-20.557-11.715L763.979,945.419c-11.306,6.529-20.46,22.383-20.423,35.376l.487,138.666c.036,12.992,9.252,18.244,20.56,11.716l167.959-95.247c11.321-6.536,20.461-22.385,20.425-35.376Z" transform="translate(-743.556 -847.364)" fill-rule="evenodd" opacity="0.2" fill="url(#linear-gradient-9)"/>
            </g>
          </g>
        </g>
        <g id="组_28" data-name="组 28" transform="translate(391.762)">
          <g id="组_26" data-name="组 26">
            <path id="路径_42" data-name="路径 42" d="M1016.475,512.241c.009,3.214,1.154,5.475,2.986,6.539l2.906,1.748c.336-.143,14.842-79.148,13.983-82.562l29.223-13.679c1.3-.882,35.4-20.632,29.279-24.336-1.024-.619-2.037-1.243-3.049-1.83-2.26-1.338-5.14-.511-7.255.709h0l-58.15,33.354c-5.707,3.288-10.184,11.245-10.167,17.609Z" transform="translate(-1016.23 -397.435)" fill-rule="evenodd" fill="url(#linear-gradient-10)"/>
            <path id="路径_43" data-name="路径 43" d="M1100.376,408.012c-.009-3.151-1.1-5.387-2.868-6.477-1.862-1.148-4.475-1.024-7.365.645l-58.149,33.352c-5.627,3.25-10.184,11.142-10.166,17.609l.242,62.448c.019,6.467,4.606,9.081,10.234,5.832l58.148-33.353c5.635-3.253,10.185-11.142,10.167-17.609Z" transform="translate(-1018.782 -398.96)" fill-rule="evenodd" fill="url(#linear-gradient-11)"/>
          </g>
          <g id="组_27" data-name="组 27" transform="translate(6.803 28.4)">
            <path id="路径_44" data-name="路径 44" d="M1052.509,505.632l11.027-6.365-17.345,30.044-17.46-9.949,11.026-6.369-.033-28.289,12.752-7.361Z" transform="translate(-1028.73 -462.252)" fill="aqua" fill-rule="evenodd"/>
            <path id="路径_45" data-name="路径 45" d="M1101.172,473.3l-11.032,6.365,17.345-30.044,17.46,9.95-11.027,6.368.033,28.289-12.752,7.362Z" transform="translate(-1056.717 -449.616)" fill="aqua" fill-rule="evenodd"/>
          </g>
        </g>
        <g id="组_42" data-name="组 42" transform="translate(0 275.146)">
          <g id="组_37" data-name="组 37" transform="translate(4.809 6.505)">
            <g id="组_29" data-name="组 29" transform="translate(98.526)">
              <path id="路径_46" data-name="路径 46" d="M544.681,1316.248c-.014-4.724-3.359-6.635-7.473-4.258l-50.926,29.523,1.393,180.613,10.5,2.031q19.418-11.324,38.865-22.489a16.364,16.364,0,0,0,7.423-12.859Z" transform="translate(-486.282 -1095.597)" fill-rule="evenodd" opacity="0.5" fill="url(#linear-gradient-12)"/>
              <path id="路径_47" data-name="路径 47" d="M540.726,920.531c-.014-4.724-3.359-6.636-7.473-4.259L488.317,942.3l-.162,181.36,10.476,2.137c11.44-6.656,23.01-13.284,34.458-19.851a16.364,16.364,0,0,0,7.424-12.858Z" transform="translate(-487.136 -915.25)" fill-rule="evenodd" opacity="0.5" fill="url(#linear-gradient-13)"/>
            </g>
            <g id="组_36" data-name="组 36" transform="translate(0 208.866)">
              <g id="组_30" data-name="组 30">
                <path id="路径_48" data-name="路径 48" d="M451.863,1301.141l-3.643-1.926a5.789,5.789,0,0,0-4.645.823c-43.591,25-87.092,50.882-130.687,75.887a16.38,16.38,0,0,0-7.423,12.858l-.213,172.563a5.447,5.447,0,0,0,1.845,4.557c1.371,1.015,4.2,3.214,6.441,1.919,43.593-25,86.287-53.106,129.873-78.107a16.364,16.364,0,0,0,7.424-12.858Z" transform="translate(-305.252 -1299.016)" fill="#f2f4ff" fill-rule="evenodd"/>
                <path id="路径_49" data-name="路径 49" d="M456.618,1307.318c-.014-4.724-3.359-6.635-7.473-4.258-43.59,25-87.091,50.883-130.686,75.887a16.374,16.374,0,0,0-7.423,12.859l-.214,172.563c.014,4.722,3.363,6.631,7.473,4.256,43.593-25,87.1-50.888,130.686-75.887a16.363,16.363,0,0,0,7.423-12.858Z" transform="translate(-307.79 -1300.393)" fill="#fff" fill-rule="evenodd"/>
              </g>
              <g id="组_33" data-name="组 33" transform="translate(23.801 48.533)">
                <g id="组_31" data-name="组 31" transform="translate(0 30.452)">
                  <path id="路径_50" data-name="路径 50" d="M360.916,1444.457c-5.942,1.572-11.258,8.6-11.874,15.707s3.7,11.588,9.645,10.016,11.258-8.6,11.873-15.707S366.858,1442.884,360.916,1444.457Z" transform="translate(-348.984 -1444.142)" fill="#ff7ccf" fill-rule="evenodd" opacity="0.2"/>
                  <path id="路径_51" data-name="路径 51" d="M364.577,1455.468c-3.2.848-6.07,4.639-6.4,8.469s2,6.247,5.2,5.4,6.07-4.64,6.4-8.469S367.781,1454.619,364.577,1455.468Z" transform="translate(-353.159 -1449.227)" fill-rule="evenodd" fill="url(#linear-gradient-14)"/>
                </g>
                <g id="组_32" data-name="组 32" transform="translate(28.518)">
                  <path id="路径_52" data-name="路径 52" d="M445.831,1389.85c0-1.5-1.07-2.095-2.38-1.317l-39.7,22.521a5.321,5.321,0,0,0-2.365,4.134v2.976c0,1.5,1.071,2.094,2.38,1.317l39.7-22.521a5.318,5.318,0,0,0,2.364-4.135Z" transform="translate(-401.382 -1388.191)" fill="#ff7ccf" fill-rule="evenodd" opacity="0.2"/>
                  <path id="路径_53" data-name="路径 53" d="M427.63,1430.859c0-.888-.631-1.237-1.405-.778l-23.445,13.3a3.141,3.141,0,0,0-1.4,2.441v1.757c0,.888.632,1.236,1.405.777l23.445-13.3a3.139,3.139,0,0,0,1.4-2.441Z" transform="translate(-401.382 -1407.19)" fill="#ff7ccf" fill-rule="evenodd" opacity="0.2"/>
                </g>
              </g>
              <g id="组_35" data-name="组 35" transform="translate(11.71 65.639)">
                <g id="组_34" data-name="组 34" transform="translate(24.828 45.794)">
                  <path id="路径_54" data-name="路径 54" d="M456.131,1555.818l-31.513-52.058-15.915,57.8-16.171-19.68-20.147,61.969Z" transform="translate(-372.385 -1503.76)" fill-rule="evenodd" fill="url(#linear-gradient-15)"/>
                  <path id="路径_55" data-name="路径 55" d="M413.66,1510.471c-4.328,1.072-8.2,6.131-8.65,11.3s2.7,8.486,7.026,7.414,8.2-6.131,8.65-11.3S417.989,1509.4,413.66,1510.471Z" transform="translate(-387.234 -1506.727)" fill="#ffdb59" fill-rule="evenodd"/>
                </g>
                <path id="路径_56" data-name="路径 56" d="M452.731,1428.377c-.021-7.833-5.569-11-12.392-7.063L339.08,1478.737c-6.815,3.937-12.334,13.495-12.313,21.328l.294,83.6c.022,7.832,5.578,11,12.394,7.063L440.712,1533.3c6.824-3.941,12.335-13.495,12.314-21.328Z" transform="translate(-326.767 -1419.62)" fill-rule="evenodd" opacity="0.2" fill="url(#linear-gradient-16)"/>
              </g>
            </g>
          </g>
          <g id="组_41" data-name="组 41">
            <g id="组_38" data-name="组 38">
              <path id="路径_57" data-name="路径 57" d="M443.028,905.424l-3.643-1.926a5.791,5.791,0,0,0-4.645.822c-43.59,25-87.091,50.882-130.685,75.887a16.376,16.376,0,0,0-7.424,12.858l-.214,172.561a5.448,5.448,0,0,0,1.845,4.556c1.371,1.015,4.2,3.214,6.441,1.92C348.3,1147.1,390.99,1119,434.575,1094A16.369,16.369,0,0,0,442,1081.138Z" transform="translate(-296.417 -903.299)" fill="#f2f4ff" fill-rule="evenodd"/>
              <path id="路径_58" data-name="路径 58" d="M447.783,911.6c-.014-4.724-3.359-6.636-7.473-4.259-43.59,25-87.091,50.882-130.685,75.887A16.381,16.381,0,0,0,302.2,996.09l-.214,172.56c.013,4.722,3.364,6.631,7.473,4.258,43.592-25,87.1-50.888,130.685-75.887a16.364,16.364,0,0,0,7.424-12.859Z" transform="translate(-298.956 -904.677)" fill-rule="evenodd" fill="url(#linear-gradient-17)"/>
            </g>
            <g id="组_39" data-name="组 39" transform="translate(45.113 86.932)">
              <path id="路径_59" data-name="路径 59" d="M443.471,1066.223c-.008-2.86-2.033-4.017-4.524-2.579L383.8,1095.482a9.917,9.917,0,0,0-4.5,7.787l.107,47.9c.008,2.86,2.036,4.016,4.525,2.578l55.145-31.838a9.912,9.912,0,0,0,4.5-7.786Z" transform="translate(-379.307 -1063.026)" fill="#fff" fill-rule="evenodd"/>
              <path id="路径_60" data-name="路径 60" d="M423.831,1108.465c9.547-5.512,17.3-1.083,17.332,9.877s-7.673,24.323-17.221,29.835-17.3,1.084-17.33-9.887S414.292,1113.973,423.831,1108.465Z" transform="translate(-391.751 -1082.654)" fill-rule="evenodd" fill="url(#linear-gradient-18)"/>
              <path id="路径_61" data-name="路径 61" d="M429.7,1152.672l.02-19.844,17.119-1.4Z" transform="translate(-402.273 -1094.201)" fill="#fff" fill-rule="evenodd"/>
            </g>
            <g id="组_40" data-name="组 40" transform="translate(10.037 177.927)">
              <path id="路径_62" data-name="路径 62" d="M447.679,1230.97c0-.686-.488-.952-1.086-.592l-130.657,75.589a2.45,2.45,0,0,0-1.079,1.894l.026,2.08c0,.686.489.951,1.086.592l130.656-75.589a2.447,2.447,0,0,0,1.079-1.895Z" transform="translate(-314.858 -1230.217)" fill="#e889df" fill-rule="evenodd"/>
              <path id="路径_63" data-name="路径 63" d="M369.664,1314.042c0-.662-.47-.919-1.047-.572l-52.7,30.482a2.364,2.364,0,0,0-1.04,1.827l.024,2.007c0,.662.471.918,1.048.571l52.7-30.481a2.366,2.366,0,0,0,1.041-1.828Z" transform="translate(-314.867 -1268.089)" fill="#6e4dfc" fill-rule="evenodd"/>
            </g>
          </g>
        </g>
        <g id="组_44" data-name="组 44" transform="translate(410.689 281.422)">
          <path id="路径_64" data-name="路径 64" d="M1114.958,955.82,1070.933,977.3c-11.03,6.37-19.963,21.839-19.927,34.518l.678,17.34c.036,12.676,9.027,17.8,20.06,11.431l42.355-24.14Z" transform="translate(-1051.006 -933.41)" fill-rule="evenodd" opacity="0.5" fill="url(#linear-gradient-19)"/>
          <g id="组_43" data-name="组 43" transform="translate(3.846)">
            <path id="路径_65" data-name="路径 65" d="M1166,928.817c-.035-12.678-9.014-17.809-20.058-11.43L1078,956.109c-11.03,6.37-19.963,21.839-19.927,34.518l.475,11.875c.036,12.676,9.027,17.8,20.06,11.43l67.943-38.723c11.045-6.378,19.964-21.84,19.929-34.518Z" transform="translate(-1058.073 -914.645)" fill-rule="evenodd" fill="url(#linear-gradient-20)"/>
          </g>
          <path id="同步" d="M24.9,50.707q1.618-.677,3.078-1.46,1.166-.625,1.048-1.582l-2.216-17.9L7.845,39.694l2.407,16.632.793,5.037q.031.217-.037.3t-.276.193L8.067,63.288q-.224.12-.283.1t-.09-.223L6.885,57.28,5.062,45,4.09,38.892q-.036-.243.019-.318t.285-.195l4.17-2.113,16.794-8.756,4.048-2.171q.253-.132.3-.1t.077.248l.688,6.241,1.229,10.219.644,4.841q.139,1.537-.681,2.8-.909,1.285-4.4,3.16-.728.392-.875.34t-.376-.626Q25.527,51.292,24.9,50.707ZM16.5,54.666,14.2,55.9q-.253.135-.3.1t-.079-.223l-.607-4.767-.328-2.33-.512-3.176q-.032-.224.023-.3t.265-.185l3.4-1.735,4.376-2.311,3.381-1.846q.237-.125.289-.093t.077.228l.285,2.722.3,2.386.647,4.568q.03.233-.015.308t-.28.2l-2.276,1.218q-.25.134-.3.1t-.08-.25l-.119-.905-5.75,3.072.206,1.5q.028.205-.017.281T16.5,54.666Zm-.8-8.493.555,4.035,5.767-3.071L21.49,43.1ZM14.751,41.4,10.9,43.49q-.242.127-.31.1-.055-.047-.085-.258L10.2,41.19q-.032-.226.022-.3T10.5,40.7l3.877-1.974,6.458-3.389,3.813-2.061q.238-.125.29-.092t.077.231l.27,2.143q.03.239-.022.327t-.262.183L21.19,38.012Zm35.2-18.55L56.64,19.33l3.808-2.064q.227-.12.289-.093t.065.23l.187,2.124q.02.223-.047.3-.039.064-.251.176l-3.807,1.953-6.669,3.523.116,1.17.439,3.5q.114,1.145-.005,1.76-.126.69-.6,1.335-.568.766-1.38,1.358-.828.586-2.642,1.555-.687.367-.843.319-.126-.049-.331-.55-.486-1.152-1.119-1.676,1.67-.713,2.56-1.186,1.347-.716,1.236-1.794l-.432-4.21L39.775,31l-3.913,2.126q-.234.123-.284.091t-.073-.228l-.245-2.129q-.026-.225.028-.3t.259-.181l3.937-2.013.262-.138-.328-2.971q-.241-2.18-.6-3.465,1.383-.677,3.231-1.462.457-.194.489.1.011.1-.116.645-.146.511.056,2.393l.336,3.14,4.126-2.172-.552-5.375q-.245-2.389-.6-3.409,1.9-.929,3.208-1.445.454-.192.481.08.03.3-.087.66-.176.526.006,2.36l.008.085,5.1-2.669,2.821-1.535q.229-.12.277-.086t.066.233l.19,2.092q.02.226-.033.3t-.253.177l-2.824,1.422L49.668,20ZM36.126,39.434q2.582-2.853,4.075-5.98.521-1.115.831-2.207,1.081-.2,2.63-.288.332-.029.36.235.024.222-.274.571t-.588,1.059q-1.486,3.452-4.065,6.794-.47.586-.614.663t-.653-.22Q37.005,39.581,36.126,39.434ZM38,44.256q7.385-4.8,11.867-9.762Q53.616,30.34,55.92,25.4q.4-.837.736-1.861,1.506.033,2.617.345.381.117.4.38.027.3-.373.618-.427.357-.829,1.15-1.422,2.867-3.241,5.519T51.2,36.646q-2.22,2.443-4.847,4.684t-5.668,4.284q-.409.278-.538.347-.272.146-.421.04-.085-.084-.325-.458Q38.864,44.746,38,44.256Z" transform="translate(24.579 17.056)" fill="#fff"/>
        </g>
      </g>
    </g>
  </g>
</svg>
