<svg id="苹果图标" xmlns="http://www.w3.org/2000/svg" width="250" height="75.231" viewBox="0 0 250 75.231">
  <rect id="矩形_1" data-name="矩形 1" width="250" height="75.231" rx="6"/>
  <path id="路径_117" data-name="路径 117" d="M54.847,35.025a9.028,9.028,0,0,1,4.3-7.573,9.231,9.231,0,0,0-7.275-3.936c-3.061-.321-6.028,1.833-7.588,1.833-1.59,0-3.991-1.8-6.577-1.748a9.687,9.687,0,0,0-8.153,4.976c-3.525,6.108-.9,15.084,2.481,20.021,1.689,2.417,3.664,5.118,6.248,5.022,2.528-.1,3.472-1.613,6.524-1.613,3.023,0,3.909,1.613,6.545,1.552,2.713-.044,4.422-2.428,6.052-4.869a20,20,0,0,0,2.768-5.641A8.723,8.723,0,0,1,54.847,35.025Z" transform="translate(0 1.335)" fill="#fff"/>
  <path id="路径_118" data-name="路径 118" d="M49.868,20.269A8.892,8.892,0,0,0,51.9,13.9a9.034,9.034,0,0,0-5.846,3.027,8.461,8.461,0,0,0-2.085,6.131A7.469,7.469,0,0,0,49.868,20.269Z" transform="translate(2.702 -0.106)" fill="#fff"/>
  <path id="路径_119" data-name="路径 119" d="M78.176,47.5H86.8l2.07,6.122h3.717L84.419,30.971h-3.8L72.45,53.622H76.1Zm7.733-2.825H79.071l3.373-9.936h.094Z" transform="translate(4.705 1.629)" fill="#fff" fill-rule="evenodd"/>
  <path id="路径_120" data-name="路径 120" d="M103.353,53.8c4.142,0,6.887-3.3,6.887-8.429s-2.761-8.431-6.949-8.431a5.853,5.853,0,0,0-5.255,2.92h-.062V37.108H94.7V59.085h3.387v-8.18h.078A5.593,5.593,0,0,0,103.353,53.8ZM102.4,39.824c2.634,0,4.361,2.2,4.361,5.541,0,3.374-1.727,5.556-4.361,5.556-2.588,0-4.329-2.228-4.329-5.556C98.069,42.069,99.81,39.824,102.4,39.824Z" transform="translate(6.021 2.117)" fill="#fff" fill-rule="evenodd"/>
  <path id="路径_121" data-name="路径 121" d="M121.515,53.795c4.142,0,6.887-3.3,6.887-8.429s-2.761-8.431-6.949-8.431a5.853,5.853,0,0,0-5.255,2.919h-.062V37.108h-3.279V59.085h3.387v-8.18h.079A5.593,5.593,0,0,0,121.515,53.795Zm-.956-13.971c2.635,0,4.361,2.2,4.361,5.541h0c0,3.374-1.726,5.556-4.361,5.556-2.588,0-4.329-2.228-4.329-5.556C116.23,42.069,117.971,39.824,120.559,39.824Z" transform="translate(7.176 2.117)" fill="#fff" fill-rule="evenodd"/>
  <path id="路径_122" data-name="路径 122" d="M140.406,47.311c.251,2.246,2.432,3.721,5.411,3.721,2.856,0,4.91-1.475,4.91-3.5,0-1.758-1.239-2.811-4.173-3.532l-2.933-.707c-4.156-1-6.086-2.95-6.086-6.106,0-3.908,3.4-6.592,8.236-6.592,4.783,0,8.062,2.684,8.172,6.592h-3.419c-.205-2.26-2.072-3.625-4.8-3.625s-4.6,1.381-4.6,3.39c0,1.6,1.193,2.544,4.11,3.265l2.494.613c4.644,1.1,6.573,2.966,6.573,6.279,0,4.238-3.373,6.892-8.738,6.892-5.019,0-8.408-2.592-8.627-6.689Z" transform="translate(8.779 1.637)" fill="#fff"/>
  <path id="路径_123" data-name="路径 123" d="M161.614,33.2v3.908h3.138v2.684h-3.138v9.1c0,1.414.628,2.073,2.008,2.073a10.574,10.574,0,0,0,1.114-.078v2.668a9.29,9.29,0,0,1-1.881.157c-3.341,0-4.644-1.256-4.644-4.458V39.792h-2.4V37.107h2.4V33.2Z" transform="translate(9.619 1.704)" fill="#fff"/>
  <path id="路径_124" data-name="路径 124" d="M174.4,36.9c-4.769,0-7.827,3.265-7.827,8.461s3.028,8.461,7.827,8.461,7.828-3.251,7.828-8.461S179.182,36.9,174.4,36.9Zm0,2.792c2.745,0,4.377,2.1,4.377,5.668h0c0,3.579-1.632,5.666-4.377,5.666s-4.375-2.088-4.375-5.666C170.022,41.816,171.653,39.7,174.4,39.7Z" transform="translate(10.596 1.814)" fill="#fff" fill-rule="evenodd"/>
  <path id="路径_125" data-name="路径 125" d="M185.018,37.108h3.23v2.811h.079a3.936,3.936,0,0,1,3.969-2.984,5.22,5.22,0,0,1,1.161.126v3.171a4.734,4.734,0,0,0-1.522-.2,3.415,3.415,0,0,0-3.53,3.8v9.8h-3.387Z" transform="translate(11.396 1.805)" fill="#fff"/>
  <path id="路径_126" data-name="路径 126" d="M201.969,53.826c3.732,0,6.65-2.057,7.105-5.055h-3.216a3.734,3.734,0,0,1-3.811,2.323,4.3,4.3,0,0,1-4.439-4.678v-.2h11.655V45.05c0-5.007-2.871-8.146-7.437-8.146-4.642,0-7.638,3.36-7.638,8.54C194.188,50.607,197.168,53.826,201.969,53.826Zm3.9-9.984h-8.251a4.18,4.18,0,0,1,4.2-4.191,3.971,3.971,0,0,1,4.048,4.191Z" transform="translate(14.016 1.814)" fill="#fff" fill-rule="evenodd"/>
  <path id="路径_127" data-name="路径 127" d="M82.483,15.411a4.809,4.809,0,0,0-3.838-1.492H74.717V24.8h3.928c3.24,0,5.117-2,5.117-5.476A4.817,4.817,0,0,0,82.483,15.411Zm-4.027,7.853H76.406V15.457h2.051a3.43,3.43,0,0,1,3.587,3.892,3.421,3.421,0,0,1-3.587,3.914Z" transform="translate(4.615 -0.08)" fill="#fff" fill-rule="evenodd"/>
  <path id="路径_128" data-name="路径 128" d="M87.491,17.017a3.892,3.892,0,0,0-1.82,3.677,3.889,3.889,0,1,0,7.741,0,3.888,3.888,0,0,0-5.921-3.677Zm2.053.855c1.4,0,2.2,1.041,2.2,2.821h0c0,1.788-.8,2.828-2.2,2.828s-2.2-1.033-2.2-2.828S88.137,17.872,89.545,17.872Z" transform="translate(5.261 0.056)" fill="#fff" fill-rule="evenodd"/>
  <path id="路径_129" data-name="路径 129" d="M103.7,24.8h-1.681l-1.7-6.049H100.2L98.508,24.8H96.843L94.581,16.59h1.643l1.47,6.267h.121L99.5,16.59h1.554l1.687,6.267h.128l1.463-6.267h1.62Z" transform="translate(5.902 0.062)" fill="#fff"/>
  <path id="路径_130" data-name="路径 130" d="M107.858,16.59h1.56v1.3h.121a2.456,2.456,0,0,1,2.449-1.463,2.671,2.671,0,0,1,2.841,3.055V24.8h-1.62v-4.91c0-1.32-.573-1.976-1.771-1.976A1.884,1.884,0,0,0,109.478,20V24.8h-1.62Z" transform="translate(6.602 0.053)" fill="#fff"/>
  <path id="路径_131" data-name="路径 131" d="M117.411,13.384h1.62V24.8h-1.62Z" transform="translate(7.022 -0.109)" fill="#fff"/>
  <path id="路径_132" data-name="路径 132" d="M123.1,17.017a3.891,3.891,0,0,0-1.82,3.677,3.889,3.889,0,1,0,7.742,0,3.889,3.889,0,0,0-5.922-3.677Zm2.053.856c1.4,0,2.2,1.041,2.2,2.822h0c0,1.787-.8,2.828-2.2,2.828s-2.2-1.033-2.2-2.828S123.747,17.873,125.155,17.873Z" transform="translate(7.448 0.056)" fill="#fff" fill-rule="evenodd"/>
  <path id="路径_133" data-name="路径 133" d="M133.782,20.029c-1.953.121-3.053.973-3.053,2.452a2.48,2.48,0,0,0,2.736,2.458,2.76,2.76,0,0,0,2.465-1.29h.129V24.8h1.559V19.192c0-1.735-1.161-2.76-3.218-2.76-1.862,0-3.188.9-3.354,2.316h1.568c.18-.581.807-.913,1.711-.913,1.107,0,1.68.49,1.68,1.357V19.9Zm2.223,1.064v.687a1.935,1.935,0,0,1-2.125,1.8c-.881,0-1.522-.43-1.522-1.169,0-.724.513-1.109,1.643-1.185Z" transform="translate(7.998 0.056)" fill="#fff" fill-rule="evenodd"/>
  <path id="路径_134" data-name="路径 134" d="M143.154,16.454c-2.074,0-3.407,1.644-3.407,4.24s1.319,4.246,3.407,4.246a2.848,2.848,0,0,0,2.577-1.433h.128v1.3h1.553V13.384h-1.62v4.511h-.121A2.7,2.7,0,0,0,143.154,16.454Zm.46,7.029c-1.372,0-2.193-1.048-2.193-2.79h0c0-1.728.829-2.783,2.193-2.783s2.209,1.079,2.209,2.79S144.979,23.483,143.614,23.483Z" transform="translate(8.579 -0.107)" fill="#fff" fill-rule="evenodd"/>
  <path id="路径_135" data-name="路径 135" d="M155.933,17.017a3.893,3.893,0,0,0-1.821,3.677,3.889,3.889,0,1,0,7.741,0,3.888,3.888,0,0,0-5.92-3.677Zm2.052.855c1.4,0,2.2,1.041,2.2,2.821s-.8,2.828-2.2,2.828-2.2-1.033-2.2-2.828S156.577,17.872,157.985,17.872Z" transform="translate(9.464 0.056)" fill="#fff" fill-rule="evenodd"/>
  <path id="路径_136" data-name="路径 136" d="M164.027,16.59h1.559v1.3h.121a2.456,2.456,0,0,1,2.449-1.463A2.671,2.671,0,0,1,171,19.486V24.8h-1.62v-4.91c0-1.32-.573-1.976-1.771-1.976A1.884,1.884,0,0,0,165.646,20V24.8h-1.619Z" transform="translate(10.04 0.053)" fill="#fff"/>
  <path id="路径_137" data-name="路径 137" d="M180.15,14.546v2.082h1.778v1.365H180.15v4.223c0,.86.354,1.237,1.161,1.237a5.374,5.374,0,0,0,.617-.037v1.35a5.3,5.3,0,0,1-.881.083c-1.8,0-2.518-.634-2.518-2.218V17.993h-1.3V16.628h1.3V14.546Z" transform="translate(10.74 -0.044)" fill="#fff"/>
  <path id="路径_138" data-name="路径 138" d="M184.141,13.384h1.606V17.91h.128a2.525,2.525,0,0,1,2.5-1.471A2.705,2.705,0,0,1,191.2,19.5v5.3h-1.621V19.9c0-1.312-.611-1.976-1.755-1.976a1.918,1.918,0,0,0-2.067,2.082v4.8h-1.62Z" transform="translate(11.275 -0.109)" fill="#fff"/>
  <path id="路径_139" data-name="路径 139" d="M197.092,24.962a3.333,3.333,0,0,0,3.557-2.376h-1.56a1.966,1.966,0,0,1-1.952,1,2.171,2.171,0,0,1-2.186-2.353v-.091h5.8v-.566c0-2.579-1.378-4.141-3.662-4.141a3.788,3.788,0,0,0-3.784,4.291,3.73,3.73,0,0,0,3.791,4.24Zm2-5.023h-4.145a2.1,2.1,0,0,1,2.125-2.128,1.981,1.981,0,0,1,2.02,2.128Z" transform="translate(14.016 0.057)" fill="#fff" fill-rule="evenodd"/>
</svg>
