<svg xmlns="http://www.w3.org/2000/svg" xmlns:xlink="http://www.w3.org/1999/xlink" width="823.808" height="773.922" viewBox="0 0 823.808 773.922">
  <defs>
    <linearGradient id="linear-gradient" x1="0.44" y1="0.521" x2="0.711" y2="0.13" gradientUnits="objectBoundingBox">
      <stop offset="0" stop-color="#6d6afe"/>
      <stop offset="1" stop-color="#3fb0f7"/>
    </linearGradient>
    <linearGradient id="linear-gradient-2" x1="0.581" y1="0.584" x2="0.737" y2="0.249" gradientUnits="objectBoundingBox">
      <stop offset="0" stop-color="#965cf2"/>
      <stop offset="1" stop-color="#ff8adc"/>
    </linearGradient>
    <linearGradient id="linear-gradient-3" x1="0.486" y1="0.295" x2="0.346" y2="0.879" gradientUnits="objectBoundingBox">
      <stop offset="0" stop-color="#d1e8ff"/>
      <stop offset="1" stop-color="#eaefff"/>
    </linearGradient>
    <linearGradient id="linear-gradient-4" x1="0.628" y1="0.18" x2="0.338" y2="0.902" xlink:href="#linear-gradient"/>
    <linearGradient id="linear-gradient-5" x1="0.403" y1="0.663" x2="0.709" y2="0.148" xlink:href="#linear-gradient-2"/>
    <linearGradient id="linear-gradient-6" x1="0.439" y1="0.643" x2="0.768" y2="0.166" xlink:href="#linear-gradient-2"/>
    <linearGradient id="linear-gradient-7" x1="0.408" y1="0.675" x2="0.716" y2="0.158" xlink:href="#linear-gradient-2"/>
    <linearGradient id="linear-gradient-8" x1="0.532" y1="0.401" x2="0.466" y2="0.605" gradientUnits="objectBoundingBox">
      <stop offset="0" stop-color="#1c8ef4"/>
      <stop offset="1" stop-color="#00cfdd"/>
    </linearGradient>
    <linearGradient id="linear-gradient-9" x1="0.381" y1="0.74" x2="0.822" y2="-0.004" xlink:href="#linear-gradient-2"/>
    <linearGradient id="linear-gradient-10" x1="0.636" y1="0.163" x2="0.33" y2="0.923" xlink:href="#linear-gradient"/>
    <linearGradient id="linear-gradient-11" x1="0.47" y1="0.583" x2="0.598" y2="0.235" xlink:href="#linear-gradient-2"/>
    <linearGradient id="linear-gradient-12" x1="0.961" y1="0.214" x2="0.547" y2="0.718" gradientUnits="objectBoundingBox">
      <stop offset="0" stop-color="#ff66bc"/>
      <stop offset="0.56" stop-color="#ff8adc"/>
      <stop offset="1" stop-color="#ffbba8"/>
    </linearGradient>
    <linearGradient id="linear-gradient-13" x1="0.775" y1="0.491" x2="0.129" y2="0.512" xlink:href="#linear-gradient-12"/>
    <linearGradient id="linear-gradient-14" x1="0.586" y1="0.591" x2="0.785" y2="0.162" xlink:href="#linear-gradient-2"/>
    <linearGradient id="linear-gradient-15" x1="0.515" y1="0.71" x2="0.471" y2="0.086" xlink:href="#linear-gradient-2"/>
    <linearGradient id="linear-gradient-16" x1="0.601" y1="0.77" x2="0.276" y2="-0.099" xlink:href="#linear-gradient-2"/>
    <linearGradient id="linear-gradient-17" x1="0.626" y1="0.31" x2="0.489" y2="0.566" xlink:href="#linear-gradient"/>
    <linearGradient id="linear-gradient-18" x1="0.595" y1="0.393" x2="0.477" y2="0.526" xlink:href="#linear-gradient"/>
    <linearGradient id="linear-gradient-19" x1="0.857" y1="0.286" x2="0.181" y2="0.692" xlink:href="#linear-gradient"/>
    <linearGradient id="linear-gradient-20" x1="0.555" y1="0.351" x2="0.43" y2="0.687" xlink:href="#linear-gradient"/>
    <linearGradient id="linear-gradient-21" x1="0.443" y1="0.631" x2="0.633" y2="0.197" xlink:href="#linear-gradient-2"/>
    <linearGradient id="linear-gradient-22" x1="0.321" y1="0.724" x2="0.675" y2="0.281" xlink:href="#linear-gradient"/>
  </defs>
  <g id="电脑部分" transform="translate(-61.525 -244.553)">
    <g id="点缀" transform="translate(40.022 258.556)">
      <path id="路径_260" data-name="路径 260" d="M2387.534,435.88c-8.259-4.579-17.022,1.6-16.933,13.548a23.921,23.921,0,0,0,6.8,16.548,16.258,16.258,0,0,0,3.347,2.508c8.246,4.569,16.966-1.6,16.9-13.5a23.863,23.863,0,0,0-6.748-16.575,16.366,16.366,0,0,0-3.374-2.53Zm-7.961,38.216a21.846,21.846,0,0,1-4.494-3.361c-5.58-5.356-9.073-13.933-9.155-22.259-.1-16.03,11.66-24.363,22.764-18.209a21.773,21.773,0,0,1,4.554,3.423c5.561,5.342,9.053,13.921,9.09,22.249.07,15.988-11.67,24.3-22.76,18.157Zm37.821-13.622a6.067,6.067,0,0,1,2.561,6.307l-2.019,9.392c-.516,2.393-2.5,3.467-4.435,2.4l-.989-.549a2.771,2.771,0,0,0-3.911,1.079,29.994,29.994,0,0,1-1.8,2.667,5.542,5.542,0,0,0-.4,5.316l.52,1.273c1,2.426.4,5.192-1.317,6.121l-6.8,3.673a2.806,2.806,0,0,1-2.756-.1,5.266,5.266,0,0,1-2.206-2.653l-.526-1.243a5.207,5.207,0,0,0-2.186-2.62,3.177,3.177,0,0,0-1.633-.418c-.961,0-1.939-.033-2.907-.122-1.553-.148-2.85.952-3.245,2.788l-.26,1.225c-.516,2.392-2.5,3.466-4.438,2.4l-7.58-4.2a6.062,6.062,0,0,1-2.572-6.281l.264-1.222a6.4,6.4,0,0,0-1.481-5.407c-.817-.9-1.578-1.828-2.334-2.783a4.727,4.727,0,0,0-1.446-1.289,2.778,2.778,0,0,0-2.728-.1l-.889.458a2.812,2.812,0,0,1-2.759-.1,5.272,5.272,0,0,1-2.206-2.653l-3.939-9.629c-.991-2.426-.4-5.194,1.316-6.119l.9-.487c1.333-.72,2.015-2.545,1.732-4.579-.181-1.291-.308-2.584-.391-3.881a5.867,5.867,0,0,0-2.663-4.721l-.989-.549a6.056,6.056,0,0,1-2.571-6.278l2.022-9.391c.52-2.423,2.509-3.5,4.441-2.423l.988.547a2.766,2.766,0,0,0,3.911-1.077,28.616,28.616,0,0,1,1.8-2.665,5.5,5.5,0,0,0,.393-5.294l-.52-1.272c-.984-2.451-.4-5.193,1.323-6.145l6.8-3.677a2.814,2.814,0,0,1,2.755.1,5.276,5.276,0,0,1,2.208,2.653l.52,1.271a5.2,5.2,0,0,0,2.187,2.62,3.152,3.152,0,0,0,1.633.421,23.977,23.977,0,0,1,2.91.095c1.551.175,2.843-.925,3.239-2.76l.264-1.226c.519-2.421,2.508-3.495,4.44-2.421l7.585,4.2a6.062,6.062,0,0,1,2.56,6.3l-.262,1.224a6.315,6.315,0,0,0,1.468,5.37q1.224,1.348,2.35,2.821a4.675,4.675,0,0,0,1.446,1.286,2.775,2.775,0,0,0,2.726.1l.9-.484a2.8,2.8,0,0,1,2.756.1,5.272,5.272,0,0,1,2.209,2.653l3.936,9.628c.989,2.453.4,5.194-1.319,6.146l-.9.484c-1.333.721-2.015,2.547-1.726,4.555q.266,1.934.393,3.877a5.859,5.859,0,0,0,2.663,4.724Z" transform="translate(-1666.146 -419.872)" fill="#fff" fill-rule="evenodd" opacity="0.5"/>
      <path id="路径_261" data-name="路径 261" d="M1146.89,404.273c-.851,5.82-5.4,8.453-10.216,5.783-4.9-2.715-8.054-9.621-7.2-15.441.848-5.778,5.385-8.3,10.284-5.587,4.809,2.665,7.983,9.465,7.135,15.244Zm-26.406,51.693c.852-5.815,5.39-8.339,10.289-5.624,4.813,2.666,7.986,9.466,7.134,15.28s-5.407,8.45-10.221,5.784c-4.9-2.714-8.05-9.624-7.2-15.44Zm-30.058-49.751c-.847,5.784-5.474,8.257-10.285,5.59-4.78-2.651-7.982-9.464-7.135-15.244.852-5.818,5.435-8.434,10.216-5.782,4.808,2.665,8.052,9.62,7.2,15.436Zm50.416-24.59c-8.188-4.542-16.046-.3-17.5,9.6l-.009.737-28.542,4.492a24.2,24.2,0,0,0-10.507-12.972c-8.187-4.538-15.932-.2-17.382,9.7-1.435,9.794,3.959,21.494,12.148,26.033,4.721,2.62,9.223,2.3,12.458-.357l23.02,33.189-.175.531c-1.449,9.894,4.08,21.557,12.267,26.095,8.1,4.488,15.925.235,17.377-9.666,1.434-9.791-4.043-21.577-12.144-26.069-5.824-3.228-11.4-1.982-14.7,2.442L1095.349,413.6a13,13,0,0,0,1.109-4.034,17.614,17.614,0,0,0,.172-4.708l27.14-4.643c1.6,7.172,6.006,13.916,11.837,17.144,8.1,4.488,15.931.2,17.383-9.7S1148.936,386.113,1140.841,381.625Z" transform="translate(-963.673 -393.808)" fill-rule="evenodd" fill="url(#linear-gradient)"/>
      <g id="组_123" data-name="组 123" transform="translate(21.502 551.677)">
        <path id="路径_262" data-name="路径 262" d="M1114.53,1397.064l42.48-70.174,21.453,77.918,21.8-26.533,27.158,83.533Z" transform="translate(-1114.53 -1326.89)" fill-rule="evenodd" opacity="0.5" fill="url(#linear-gradient-2)"/>
        <path id="路径_263" data-name="路径 263" d="M1230.339,1334.656c5.835,1.447,11.056,8.265,11.659,15.23s-3.635,11.439-9.47,9.994-11.056-8.265-11.659-15.23S1224.5,1333.209,1230.339,1334.656Z" transform="translate(-1153.071 -1329.608)" fill="#ff89db" fill-rule="evenodd" opacity="0.5"/>
      </g>
    </g>
    <g id="电脑" transform="translate(155.333 268.29)">
      <path id="路径_168" data-name="路径 168" d="M2037.032,1524.15,1515.06,1220.376c-6.588-3.1-16.271-6.031-22.732-1.948l-16.534,10.446c-3.325,2.1-14.262,9.076-6.948,13.181,21.523,12.079,503.489,294.136,525.344,306.407,4.133,2.321,10.182,3.153,16.528,2.6,6.32-.552,12.882-2.331,17.9-5.542l6.6-4.223c4.669-2.986,7.255-6.244,7.5-9.366C2042.97,1528.879,2041.073,1526.051,2037.032,1524.15Z" transform="translate(-1368.519 -801.042)" fill="#955cf1" fill-rule="evenodd" opacity="0.3"/>
      <g id="组_74" data-name="组 74" transform="translate(110.889)">
        <path id="路径_169" data-name="路径 169" d="M1647.788,346.662a14.6,14.6,0,0,0-11.741-1.229l-8.813,3.23c-3.2,15.532,453.853,728.15,457.94,732.1l7.867-2.784c5.165-1.907,7.874-6.95,8.632-11.85l66.416-425.174a.173.173,0,0,0,.008-.047c1.082-7.151-1.21-14.594-5.4-20.568a24.879,24.879,0,0,0-8.872-8.023Z" transform="translate(-1549.252 -344.704)" fill-rule="evenodd" fill="url(#linear-gradient-3)"/>
        <path id="路径_170" data-name="路径 170" d="M2084.909,618.377,1576.829,352.8c-9.61-4.973-18.761-.2-20.458,10.626l-66.686,425.05c-1.7,10.825,4.691,23.644,14.3,28.616l508.079,265.577c9.61,4.974,18.782.211,20.479-10.611L2099.229,647C2100.933,636.182,2094.513,623.352,2084.909,618.377Z" transform="translate(-1489.411 -347.364)" fill-rule="evenodd" fill="url(#linear-gradient-4)"/>
        <g id="组_73" data-name="组 73" transform="translate(66.833 3.466)">
          <path id="路径_171" data-name="路径 171" d="M2136.262,646.744l-506.1-293.736c-9.573-5.5-18.687-.22-20.378,11.752l-2.24,15.853,540.722,313.829,2.265-16.038C2152.223,666.436,2145.833,652.246,2136.262,646.744Z" transform="translate(-1607.54 -350.831)" fill="#4a9ff8" fill-rule="evenodd"/>
          <g id="组_72" data-name="组 72" transform="translate(12.598 13.727)">
            <path id="路径_172" data-name="路径 172" d="M1637.4,375.247c3.98.91,7.037,5.649,6.826,10.584s-3.6,8.2-7.583,7.286-7.036-5.649-6.826-10.584S1633.418,374.336,1637.4,375.247Z" transform="translate(-1629.808 -375.094)" fill="#5858f0" fill-rule="evenodd"/>
            <path id="路径_173" data-name="路径 173" d="M1669.431,393.643c3.98.91,7.036,5.649,6.827,10.583s-3.606,8.2-7.585,7.287-7.036-5.649-6.826-10.584S1665.448,392.733,1669.431,393.643Z" transform="translate(-1643.716 -383.083)" fill="#5858f0" fill-rule="evenodd"/>
            <path id="路径_174" data-name="路径 174" d="M1704.092,413.848c3.98.91,7.036,5.649,6.827,10.584s-3.6,8.2-7.584,7.286-7.036-5.649-6.826-10.584S1700.109,412.938,1704.092,413.848Z" transform="translate(-1658.767 -391.857)" fill="#5858f0" fill-rule="evenodd"/>
          </g>
        </g>
      </g>
      <path id="路径_175" data-name="路径 175" d="M2362.476,1120.11l-94.26-51.748c-5.468-3.03-10.821-3.457-15.294-1.715-5.734,2.233-10.023,8.033-11.261,16.486l-10.685,76.656c-2.2,15.047,6.089,32.864,18.56,39.779l94.265,51.748c12.477,6.913,24.38.292,26.584-14.751l10.682-76.661C2383.274,1144.862,2374.946,1127.024,2362.476,1120.11Z" transform="translate(-1720.386 -707.374)" fill-rule="evenodd" opacity="0.5" fill="url(#linear-gradient-5)"/>
      <path id="路径_176" data-name="路径 176" d="M2179.076,685.386l206.678,100.8-5.474,5.59-19.837,138.651c-2.025,14.221-12.846,20.525-24.143,14.062L2142.844,833.884l-16.8-37.483Z" transform="translate(-1674.974 -519.12)" fill-rule="evenodd" opacity="0.5" fill="url(#linear-gradient-6)"/>
      <g id="组_78" data-name="组 78" transform="translate(0 201.958)">
        <path id="路径_177" data-name="路径 177" d="M1643.59,1009.128,1515.807,938.3l-4.273,6.52-20.98,142.912,132.346,73.36c14.009,7.762,27.377.328,29.852-16.564l11.711-90.716C1666.944,1036.917,1657.592,1016.89,1643.59,1009.128Z" transform="translate(-1323.31 -841.204)" fill-rule="evenodd" opacity="0.5" fill="url(#linear-gradient-7)"/>
        <g id="组_77" data-name="组 77">
          <g id="组_75" data-name="组 75">
            <path id="路径_178" data-name="路径 178" d="M1525.487,965.941l-15.265,100.29,2.422.294,6.608-2.566c7.246-2.854,11.049-10.4,12.11-17.731l11.23-86.965a.414.414,0,0,0,.011-.071c1.518-10.7-1.7-21.834-7.58-30.772a35.809,35.809,0,0,0-12.447-12L1257.724,769.611c-5.039-2.861-10.943-3.925-16.472-1.84l-5.826,2.276c-2.932,1.1-3.839,1.982-3.82,2.166C1234.358,797.843,1529.345,939.655,1525.487,965.941Z" transform="translate(-1210.865 -766.68)" fill="#d0e7ff" fill-rule="evenodd"/>
            <path id="路径_179" data-name="路径 179" d="M1499.989,921.039,1235.144,774.232c-5.886-3.262-11.649-3.722-16.465-1.846-6.172,2.4-10.791,8.648-12.124,17.747L1195.327,877.1c-2.375,16.2,6.553,35.382,19.98,42.825l264.849,146.807c13.431,7.441,26.246.314,28.62-15.881L1520,963.879C1522.381,947.686,1513.42,928.484,1499.989,921.039Z" transform="translate(-1194.945 -768.679)" fill-rule="evenodd" fill="url(#linear-gradient-8)"/>
          </g>
          <g id="组_76" data-name="组 76" transform="translate(19.703 45.712)">
            <path id="路径_180" data-name="路径 180" d="M1573.8,1006.115,1391.021,905.58a4.583,4.583,0,0,0-3.937-.439,5.042,5.042,0,0,0-2.9,4.242l-1.009,6.1c-.568,3.872,1.567,8.458,4.776,10.236l182.782,100.534c3.211,1.779,6.274.074,6.841-3.8l1.009-6.105c.567-3.868-1.577-8.462-4.785-10.238Zm-101.786,23.649c3.21,1.777,5.352,6.368,4.784,10.24l-1.009,6.1c-.568,3.871-3.629,5.574-6.842,3.8l-91.925-49.481c-3.21-1.778-5.344-6.367-4.776-10.236l1.008-6.1a5.05,5.05,0,0,1,2.9-4.245,4.591,4.591,0,0,1,3.937.44l91.924,49.483Zm96.321,13.7c3.21,1.778,5.354,6.369,4.784,10.24l-1.008,6.1c-.567,3.873-3.63,5.576-6.842,3.8L1382.488,963.073c-3.209-1.777-5.344-6.366-4.777-10.235l1.01-6.1a5.045,5.045,0,0,1,2.9-4.243,4.589,4.589,0,0,1,3.937.438Z" transform="translate(-1291.6 -872.402)" fill="#fffcf1" fill-rule="evenodd" opacity="0.5"/>
            <path id="路径_181" data-name="路径 181" d="M1270.941,878.877c-8.642-4.791-17.811,1.671-17.717,14.177a25.025,25.025,0,0,0,7.12,17.315,16.951,16.951,0,0,0,3.5,2.625c8.627,4.781,17.752-1.677,17.687-14.125a24.97,24.97,0,0,0-7.061-17.342,17.279,17.279,0,0,0-3.531-2.649Zm-8.328,39.988a22.875,22.875,0,0,1-4.7-3.518c-5.838-5.6-9.493-14.579-9.58-23.29-.1-16.774,12.2-25.491,23.818-19.053a22.744,22.744,0,0,1,4.766,3.582c5.818,5.59,9.473,14.567,9.511,23.279.072,16.729-12.217,25.43-23.814,19Zm39.569-14.253a6.345,6.345,0,0,1,2.679,6.6l-2.111,9.827c-.542,2.5-2.617,3.628-4.643,2.507l-1.034-.575a2.9,2.9,0,0,0-4.091,1.13,31.147,31.147,0,0,1-1.881,2.79,5.8,5.8,0,0,0-.42,5.563l.544,1.332c1.041,2.539.418,5.433-1.377,6.4l-7.116,3.844a2.934,2.934,0,0,1-2.883-.1,5.507,5.507,0,0,1-2.309-2.777l-.55-1.3a5.449,5.449,0,0,0-2.287-2.741,3.324,3.324,0,0,0-1.708-.437c-1.006,0-2.028-.035-3.041-.128-1.625-.155-2.983,1-3.4,2.917l-.271,1.282c-.542,2.5-2.619,3.626-4.644,2.507l-7.932-4.4a6.339,6.339,0,0,1-2.69-6.572L1251.3,931a6.7,6.7,0,0,0-1.55-5.659c-.855-.941-1.651-1.912-2.442-2.91a4.961,4.961,0,0,0-1.512-1.351,2.908,2.908,0,0,0-2.855-.107l-.931.478a2.938,2.938,0,0,1-2.886-.1,5.515,5.515,0,0,1-2.308-2.776l-4.122-10.075c-1.037-2.537-.414-5.434,1.377-6.4l.94-.51c1.4-.754,2.109-2.662,1.812-4.791-.19-1.35-.324-2.7-.409-4.061a6.144,6.144,0,0,0-2.786-4.939l-1.034-.576a6.336,6.336,0,0,1-2.69-6.568l2.114-9.826c.545-2.536,2.625-3.659,4.646-2.536l1.034.573a2.893,2.893,0,0,0,4.091-1.128,29.543,29.543,0,0,1,1.884-2.789,5.755,5.755,0,0,0,.41-5.539l-.544-1.329c-1.03-2.566-.414-5.435,1.384-6.43l7.116-3.848a2.948,2.948,0,0,1,2.884.1,5.521,5.521,0,0,1,2.311,2.777l.544,1.328a5.44,5.44,0,0,0,2.287,2.742,3.284,3.284,0,0,0,1.709.44,24.982,24.982,0,0,1,3.044.1c1.622.182,2.975-.967,3.39-2.888l.275-1.283c.544-2.534,2.625-3.656,4.646-2.534l7.935,4.4a6.341,6.341,0,0,1,2.679,6.6l-.275,1.283a6.61,6.61,0,0,0,1.537,5.618q1.28,1.41,2.458,2.952a4.928,4.928,0,0,0,1.512,1.345,2.9,2.9,0,0,0,2.852.107l.94-.507a2.933,2.933,0,0,1,2.883.1,5.506,5.506,0,0,1,2.311,2.776l4.119,10.074c1.034,2.566.417,5.435-1.38,6.431l-.94.507c-1.4.755-2.107,2.665-1.805,4.766.185,1.35.324,2.7.41,4.057a6.136,6.136,0,0,0,2.786,4.943Z" transform="translate(-1229.771 -847.477)" fill="#fffcf1" fill-rule="evenodd" opacity="0.5"/>
          </g>
        </g>
      </g>
      <g id="组_80" data-name="组 80" transform="translate(114.162 8.851)">
        <path id="路径_182" data-name="路径 182" d="M1644.813,456.087l-57.159-27.632-22.561,141.172-2.9,19.834,59.433,32.071c10.326,5.72,20.181.24,22-12.213L1660.2,489.031C1662.035,476.575,1655.138,461.81,1644.813,456.087Z" transform="translate(-1484.188 -389.924)" fill-rule="evenodd" opacity="0.5" fill="url(#linear-gradient-9)"/>
        <g id="组_79" data-name="组 79">
          <path id="路径_183" data-name="路径 183" d="M1594.886,460.085l-17.812,115.074,1.864.227,5.081-1.974c5.571-2.193,8.495-7.995,9.311-13.634l14.709-104.828a.4.4,0,0,0,.007-.056c1.167-8.226-1.306-16.789-5.829-23.661a27.533,27.533,0,0,0-9.572-9.229l-109.311-59.4a14.891,14.891,0,0,0-12.668-1.415l-4.48,1.75c-2.255.848-2.952,1.526-2.936,1.664C1465.36,384.311,1597.85,439.869,1594.886,460.085Z" transform="translate(-1441.225 -360.349)" fill="#d0e7ff" fill-rule="evenodd"/>
          <path id="路径_184" data-name="路径 184" d="M1570.614,425.557l-109.306-59.4c-4.526-2.508-8.958-2.862-12.661-1.42-4.746,1.848-8.3,6.651-9.322,13.648l-14.711,104.831c-1.825,12.457,5.041,27.205,15.365,32.93l109.312,59.4c10.325,5.721,20.181.24,22-12.213L1586,458.5C1587.831,446.046,1580.94,431.28,1570.614,425.557Z" transform="translate(-1424.321 -361.886)" fill-rule="evenodd" fill="url(#linear-gradient-10)"/>
          <path id="路径_185" data-name="路径 185" d="M1558.58,562.735,1448.763,503.79c-2.535-1.36-4.954.04-5.445,3.184a8.15,8.15,0,0,0,3.7,7.983L1556.833,573.9c2.534,1.362,5-.02,5.493-3.164a8.239,8.239,0,0,0-3.746-8Zm4.905-31.91a8.234,8.234,0,0,1,3.745,8c-.491,3.145-2.959,4.527-5.493,3.165l-109.812-58.944a8.146,8.146,0,0,1-3.7-7.982c.491-3.144,2.91-4.544,5.444-3.184l109.817,58.944Zm11.3-72.363-109.816-58.944c-2.53-1.363-4.953.04-5.425,3.077l-1.224,7.805a8.167,8.167,0,0,0,3.7,7.979l109.816,58.945c2.528,1.356,4.995-.019,5.473-3.057l1.215-7.806a8.214,8.214,0,0,0-3.744-8Zm-6.353,40.705a8.16,8.16,0,0,1,3.756,7.952c-.5,3.2-2.959,4.522-5.488,3.16l-109.819-58.945a8.073,8.073,0,0,1-3.714-7.921c.5-3.2,2.918-4.545,5.447-3.191Z" transform="translate(-1432.535 -377.131)" fill="#fffcf1" fill-rule="evenodd"/>
        </g>
      </g>
      <g id="组_81" data-name="组 81" transform="translate(510.413 359.292)">
        <path id="路径_186" data-name="路径 186" d="M2371.119,1155.632l-12.993,80.143,2.025.246,5.527-2.146c6.059-2.386,9.236-8.695,10.125-14.825l9.619-69a.334.334,0,0,0,.009-.06c1.269-8.945-1.419-18.256-6.338-25.729a29.942,29.942,0,0,0-10.407-10.036l-84.856-46.582c-4.214-2.393-9.151-3.282-13.774-1.539l-4.871,1.9c-2.452.921-3.21,1.658-3.195,1.81C2264.287,1091.243,2374.344,1133.647,2371.119,1155.632Z" transform="translate(-2244.42 -1065.19)" fill="#d0e7ff" fill-rule="evenodd"/>
        <path id="路径_187" data-name="路径 187" d="M2349.629,1118.084l-84.852-46.584c-4.921-2.727-9.74-3.112-13.766-1.544-5.162,2.01-9.023,7.232-10.137,14.84l-9.619,69c-1.985,13.544,5.481,29.584,16.708,35.809l84.856,46.583c11.231,6.223,21.946.263,23.931-13.279l9.615-69.009C2368.35,1140.364,2360.854,1124.307,2349.629,1118.084Z" transform="translate(-2230.935 -1066.86)" fill="#fff" fill-rule="evenodd"/>
        <path id="路径_188" data-name="路径 188" d="M2321.288,1156.794a6.785,6.785,0,0,1,.7,3.948,25.927,25.927,0,0,1-1.542,5.052l-18.08,50.217c-.585,1.677-1.119,2.955-1.506,3.872a3.076,3.076,0,0,1-1.636,1.754c-.626.278-1.492.087-2.609-.6a6.807,6.807,0,0,1-3.569-6.925,35.413,35.413,0,0,1,1.495-5.235l18.031-50.244a18.1,18.1,0,0,1,2.427-5.191c.656-.816,1.793-.713,3.317.23a7.583,7.583,0,0,1,2.972,3.126Zm4.826,13.047-1.655,13.966,26.713,30.984L2321.229,1211l-1.662,14.026,43.088,3.369,1.41-11.888-37.95-46.666Zm-75.314-10.653,37.962,46.714,1.663-14.026-26.586-31.182,29.807,4.05,1.679-14.146-43.1-3.439Z" transform="translate(-2239.562 -1100.784)" fill-rule="evenodd" fill="url(#linear-gradient-11)"/>
      </g>
      <g id="组_88" data-name="组 88" transform="translate(287.332 376.827)">
        <g id="组_84" data-name="组 84">
          <path id="路径_189" data-name="路径 189" d="M1853.247,1160.431c1.525-10.431,9.47-15.041,17.744-10.273l122.987,69.35c8.263,4.762,13.739,17.1,12.213,27.533l-16.359,111.329c-1.525,10.432-9.48,15.036-17.746,10.274l-122.985-69.35c-8.276-4.768-13.74-17.1-12.214-27.533Z" transform="translate(-1836.632 -1148.276)" fill="#fff" fill-rule="evenodd"/>
          <g id="组_83" data-name="组 83" transform="translate(12.802 17.993)">
            <g id="组_82" data-name="组 82" transform="translate(18.778 48.22)">
              <path id="路径_190" data-name="路径 190" d="M1892.45,1324.737l42.9-59.427,8.316,63.014,20.9-22.715L1976.878,1373Z" transform="translate(-1892.45 -1265.31)" fill-rule="evenodd" fill="url(#linear-gradient-12)"/>
              <path id="路径_191" data-name="路径 191" d="M2010.522,1269.863c4.587.934,8.042,6.305,7.714,11.995s-4.312,9.545-8.9,8.612-8.042-6.305-7.715-11.994S2005.934,1268.93,2010.522,1269.863Z" transform="translate(-1939.848 -1267.227)" fill="#ffdb59" fill-rule="evenodd"/>
            </g>
            <path id="路径_192" data-name="路径 192" d="M1873.065,1190.179c1.268-8.667,7.868-12.5,14.744-8.536L1990,1239.264c6.867,3.958,11.416,14.209,10.148,22.878l-13.591,92.5c-1.268,8.667-7.877,12.493-14.746,8.537l-102.186-57.621c-6.875-3.961-11.417-14.211-10.149-22.878Z" transform="translate(-1859.26 -1180.079)" fill-rule="evenodd" opacity="0.2" fill="url(#linear-gradient-13)"/>
          </g>
        </g>
        <g id="组_87" data-name="组 87" transform="translate(165.978 96.4)">
          <path id="路径_193" data-name="路径 193" d="M2146.617,1330.821c1.526-10.432,9.471-15.041,17.744-10.273l122.986,69.349c8.265,4.763,13.74,17.1,12.215,27.533L2283.2,1528.759c-1.526,10.431-9.48,15.036-17.746,10.274l-122.985-69.349c-8.276-4.768-13.741-17.1-12.215-27.533Z" transform="translate(-2130.002 -1318.667)" fill="#fff" fill-rule="evenodd"/>
          <g id="组_86" data-name="组 86" transform="translate(12.8 17.987)">
            <g id="组_85" data-name="组 85" transform="translate(18.779 48.225)">
              <path id="路径_194" data-name="路径 194" d="M2185.82,1495.127l42.9-59.427,8.317,63.02,20.9-22.721,12.311,67.388Z" transform="translate(-2185.82 -1435.7)" fill-rule="evenodd" fill="url(#linear-gradient-14)"/>
              <path id="路径_195" data-name="路径 195" d="M2303.893,1440.253c4.587.934,8.042,6.3,7.714,11.995s-4.312,9.545-8.9,8.611-8.042-6.3-7.714-11.994S2299.305,1439.319,2303.893,1440.253Z" transform="translate(-2233.219 -1437.616)" fill="#ffdb59" fill-rule="evenodd"/>
            </g>
            <path id="路径_196" data-name="路径 196" d="M2166.434,1360.559c1.266-8.667,7.867-12.5,14.743-8.536l102.188,57.621c6.867,3.958,11.416,14.209,10.149,22.878l-13.593,92.5c-1.267,8.667-7.876,12.493-14.745,8.537l-102.186-57.621c-6.876-3.962-11.416-14.211-10.149-22.878Z" transform="translate(-2152.628 -1350.46)" fill-rule="evenodd" opacity="0.2" fill="url(#linear-gradient-15)"/>
          </g>
        </g>
      </g>
      <g id="组_103" data-name="组 103" transform="translate(261.647 114.872)">
        <path id="路径_208" data-name="路径 208" d="M1756.885,600.363c2.754-20.321,18.172-29.072,34.433-19.5l167.955,98.064c16.245,9.561,27.2,33.826,24.451,54.148l-25.6,193.708c-2.754,20.319-18.19,29.06-34.437,19.5l-167.95-98.064c-16.266-9.57-27.207-33.827-24.454-54.145Z" transform="translate(-1730.86 -576.982)" fill-rule="evenodd" opacity="0.5" fill="url(#linear-gradient-16)"/>
        <g id="组_102" data-name="组 102" transform="translate(2.271 0.538)">
          <path id="路径_209" data-name="路径 209" d="M1768.828,599.66c.3-2.2.73-12.01,3.366-14.005,3.555-2.695,10.041-6.611,11.96-7.125,5-1.337,10.776-.458,16.67,3.01l156.943,90.948c15.094,8.884,25.278,31.432,22.719,50.315l-23.786,180c-.893,6.594-3.227,11.877-6.524,15.579-2.231,2.506-7.449,6.011-11.8,8.26-4.5,2.325-10.824-4.039-13.677-5.718l-156.94-90.948c-15.115-8.893-25.282-31.432-22.723-50.312Z" transform="translate(-1739.117 -577.934)" fill="#d0e7ff" fill-rule="evenodd"/>
          <path id="路径_210" data-name="路径 210" d="M1759.058,606.48c2.558-18.883,16.885-27.014,31.995-18.121l156.066,91.123c15.095,8.883,25.279,31.431,22.72,50.314l-23.786,180c-2.559,18.88-16.9,27-32,18.12l-156.063-91.123c-15.114-8.892-25.281-31.432-22.722-50.312Z" transform="translate(-1734.875 -580.896)" fill="#fff" fill-rule="evenodd"/>
          <g id="组_96" data-name="组 96" transform="translate(21.716 3.859)">
            <path id="路径_211" data-name="路径 211" d="M1775.726,606.48c2.558-18.883,16.885-27.014,32-18.121l156.065,91.123c15.095,8.883,25.279,31.431,22.72,50.314l-2.436,17.882L1773.259,624.59Z" transform="translate(-1773.259 -584.754)" fill-rule="evenodd" fill="url(#linear-gradient-17)"/>
            <g id="组_95" data-name="组 95" transform="translate(20.963 22.29)">
              <path id="路径_212" data-name="路径 212" d="M1816.908,624.295c3.438.815,6.064,4.934,5.865,9.2s-3.147,7.062-6.586,6.246-6.064-4.933-5.864-9.2S1813.468,623.479,1816.908,624.295Z" transform="translate(-1810.312 -624.153)" fill="#fff" fill-rule="evenodd"/>
              <path id="路径_213" data-name="路径 213" d="M1849.338,644.511c3.438.815,6.064,4.935,5.865,9.2s-3.147,7.061-6.585,6.246-6.064-4.933-5.864-9.2S1845.9,643.7,1849.338,644.511Z" transform="translate(-1824.394 -632.932)" fill="#fff" fill-rule="evenodd"/>
              <path id="路径_214" data-name="路径 214" d="M1881.767,664.727c3.437.815,6.063,4.934,5.864,9.2s-3.147,7.062-6.585,6.247-6.064-4.933-5.865-9.2S1878.328,663.912,1881.767,664.727Z" transform="translate(-1838.476 -641.711)" fill="#fff" fill-rule="evenodd"/>
            </g>
          </g>
          <g id="组_101" data-name="组 101" transform="translate(13.749 78.8)">
            <g id="组_99" data-name="组 99" transform="translate(12.97)">
              <g id="组_97" data-name="组 97">
                <path id="路径_215" data-name="路径 215" d="M1812.669,717.87c15.933,3.778,28.1,22.866,27.181,42.633s-14.586,32.731-30.519,28.953-28.1-22.866-27.18-42.633S1796.736,714.091,1812.669,717.87Z" transform="translate(-1782.101 -717.216)" fill-rule="evenodd" opacity="0.2" fill="url(#linear-gradient-18)"/>
                <path id="路径_216" data-name="路径 216" d="M1822.12,747.256c8.59,2.037,15.15,12.328,14.654,22.986s-7.864,17.647-16.454,15.61-15.151-12.329-14.654-22.986S1813.532,745.219,1822.12,747.256Z" transform="translate(-1792.322 -730.107)" fill-rule="evenodd" fill="url(#linear-gradient-19)"/>
              </g>
              <g id="组_98" data-name="组 98" transform="translate(62.57 34.243)">
                <path id="路径_217" data-name="路径 217" d="M1900.2,782.509c.569-4.2,3.749-5.958,7.1-3.919l102.008,58.8c3.349,2.037,5.608,7.1,5.039,11.3l-1.1,8.307c-.569,4.2-3.752,5.955-7.1,3.92l-102.008-58.8c-3.354-2.038-5.608-7.1-5.039-11.3Z" transform="translate(-1895.436 -777.74)" fill="#955cf1" fill-rule="evenodd" opacity="0.2"/>
                <path id="路径_218" data-name="路径 218" d="M1893.4,838.015c.337-2.479,2.214-3.518,4.194-2.314l60.237,34.722a7.249,7.249,0,0,1,2.975,6.673l-.651,4.9c-.337,2.48-2.216,3.517-4.194,2.315l-60.236-34.722a7.246,7.246,0,0,1-2.976-6.673Z" transform="translate(-1892.697 -802.691)" fill="#955cf1" fill-rule="evenodd" opacity="0.2"/>
              </g>
            </g>
            <g id="组_100" data-name="组 100" transform="translate(0 73.884)">
              <path id="路径_219" data-name="路径 219" d="M1773.119,851.28c.413-3.058,2.729-4.339,5.171-2.853L1954.458,949.5a8.938,8.938,0,0,1,3.67,8.23l-.549,4.006c-.414,3.058-2.733,4.338-5.172,2.854l-176.168-101.07a8.93,8.93,0,0,1-3.67-8.229Z" transform="translate(-1764.964 -847.808)" fill="#955cf1" fill-rule="evenodd" opacity="0.2"/>
              <path id="路径_220" data-name="路径 220" d="M1766.609,903.678c.413-3.058,2.729-4.339,5.171-2.853l176.169,101.07a8.94,8.94,0,0,1,3.669,8.23l-.548,4.005c-.414,3.058-2.733,4.338-5.173,2.855l-176.167-101.07a8.929,8.929,0,0,1-3.669-8.23Z" transform="translate(-1762.137 -870.561)" fill="#955cf1" fill-rule="evenodd" opacity="0.2"/>
              <path id="路径_221" data-name="路径 221" d="M1759.789,953.593c.413-3.058,2.729-4.339,5.171-2.854l176.168,101.071a8.941,8.941,0,0,1,3.67,8.23l-.548,4.005c-.415,3.058-2.733,4.338-5.173,2.855L1762.91,965.829a8.93,8.93,0,0,1-3.67-8.23Z" transform="translate(-1759.175 -892.236)" fill="#955cf1" fill-rule="evenodd" opacity="0.2"/>
            </g>
          </g>
        </g>
      </g>
      <g id="组_107" data-name="组 107" transform="translate(444.773 115.785)">
        <g id="组_104" data-name="组 104">
          <path id="路径_222" data-name="路径 222" d="M2146.2,575.022c.558-3.918-2.048-6.937-.348-9.531,1.837-2.8,8.086-4.812,10.789-5.787,3.832-1.382,8.344-.932,12.94,1.7l187.38,107.133c10.94,6.26,18.234,22.53,16.272,36.3L2352.2,851.852c-.961,6.75-3.968,11.658-8.073,14.172-2.508,1.536-9.374,4.473-12.484,4.1-2.187-.265-.524-3.33-2.828-4.647L2141.439,758.339c-10.954-6.266-18.236-22.53-16.275-36.3Z" transform="translate(-2119.227 -558.94)" fill="#d0e7ff" fill-rule="evenodd"/>
          <path id="路径_223" data-name="路径 223" d="M2136.269,578.981c1.962-13.776,12.43-19.888,23.382-13.621l187.38,107.133c10.94,6.26,18.234,22.53,16.272,36.3L2342.27,855.81c-1.962,13.773-12.443,19.88-23.385,13.62L2131.507,762.3c-10.952-6.266-18.235-22.53-16.274-36.3Z" transform="translate(-2114.914 -560.658)" fill-rule="evenodd" fill="url(#linear-gradient-20)"/>
        </g>
        <g id="组_105" data-name="组 105" transform="translate(6.23 170.703)">
          <path id="路径_224" data-name="路径 224" d="M2126.5,862.032c.17-1.2,1.077-1.706,2.024-1.136l207.818,119.163a3.428,3.428,0,0,1,1.406,3.2l-.551,3.628c-.17,1.2-1.077,1.706-2.023,1.137L2127.36,868.858a3.43,3.43,0,0,1-1.407-3.2Z" transform="translate(-2125.925 -860.662)" fill="#6d6afd" fill-rule="evenodd"/>
          <path id="路径_225" data-name="路径 225" d="M2126.692,862.271c.164-1.154,1.039-1.646,1.951-1.1l83.826,48.051a3.311,3.311,0,0,1,1.357,3.085l-.531,3.5c-.165,1.153-1.039,1.645-1.952,1.1l-83.826-48.052a3.306,3.306,0,0,1-1.356-3.085Z" transform="translate(-2126.017 -860.787)" fill="#b269eb" fill-rule="evenodd"/>
        </g>
        <g id="组_106" data-name="组 106" transform="translate(81.199 97.624)">
          <path id="路径_226" data-name="路径 226" d="M2266.3,735.32c.467-3.278,2.957-4.732,5.563-3.241l57.686,33c2.6,1.49,4.338,5.36,3.872,8.638l-7.784,54.889c-.467,3.277-2.96,4.73-5.565,3.241l-57.685-33c-2.606-1.491-4.338-5.361-3.872-8.638Z" transform="translate(-2258.436 -731.493)" fill-rule="evenodd" fill="url(#linear-gradient-21)"/>
          <path id="路径_227" data-name="路径 227" d="M2313.919,778.751c-9.987-5.713-19.522-.148-21.311,12.414s4.844,27.386,14.831,33.1,19.522.147,21.311-12.426S2323.9,784.459,2313.919,778.751Z" transform="translate(-2273.148 -751.039)" fill-rule="evenodd" fill="url(#linear-gradient-22)"/>
          <path id="路径_228" data-name="路径 228" d="M2311.751,791.258l-3.151,22.737,19.264.522Z" transform="translate(-2280.219 -757.445)" fill="#fff" fill-rule="evenodd"/>
        </g>
      </g>
    </g>
  </g>
</svg>
