<svg id="LOGO" xmlns="http://www.w3.org/2000/svg" xmlns:xlink="http://www.w3.org/1999/xlink" width="191.35" height="72" viewBox="0 0 191.35 72">
  <defs>
    <linearGradient id="linear-gradient" x1="0.5" x2="0.5" y2="1" gradientUnits="objectBoundingBox">
      <stop offset="0" stop-color="#fe6146"/>
      <stop offset="1" stop-color="#fe258a"/>
    </linearGradient>
  </defs>
  <path id="元手机路径" d="M3.3-24.69H22.84v-2.493H3.3ZM19.543,3.941A4.192,4.192,0,0,1,16.889,2.9,3.674,3.674,0,0,1,15.8,0V-13.793H9.932v3.78a19.934,19.934,0,0,1-1.468,7.4A27.56,27.56,0,0,1,4.866,3.9H1.126a36.694,36.694,0,0,0,4.1-7.1,17.836,17.836,0,0,0,1.689-7.138v-3.458H1.126v-2.533H25.012v2.533H18.618V-.764A2.141,2.141,0,0,0,19.161.844a2.2,2.2,0,0,0,1.347.6h4.665L24.65,3.941Zm23.124-19.7H32.614v-2.493H42.667v-6.233H32.614v-2.533h18.5A10.6,10.6,0,0,0,53.6-27.3a8.428,8.428,0,0,0,1.93-.684v2.533a8.471,8.471,0,0,1-1.91.684,10.53,10.53,0,0,1-2.513.281H45.643v6.233h9.892v2.493H45.643V-9.49H56.62v2.533H45.643v7.8a2.767,2.767,0,0,1-.985,2.332,4.193,4.193,0,0,1-2.393.844H37.118L36.6,1.488h5.067a1.041,1.041,0,0,0,.7-.261,1.035,1.035,0,0,0,.3-.824V-6.957H31.528V-9.49H42.667ZM68.4-19.141H62.976v-2.533H68.4v-6.474h3.016v6.474h2.614v2.533H71.421v2.574l2.614.885v2.493l-2.614-.844V3.941H68.4Zm-1.166,1.689q-.121,6.193-.483,12a86.97,86.97,0,0,1-.925,9.028H62.976A95.455,95.455,0,0,0,64-6.253q.342-5.73.382-11.2ZM73.15,3.9a53.931,53.931,0,0,0,1.166-6.012,47.579,47.579,0,0,0,.483-6.7V-27.344h7.319a3.2,3.2,0,0,1,1.99.724,2.561,2.561,0,0,1,.824,2.091V-.764A2.141,2.141,0,0,0,85.475.844a2.2,2.2,0,0,0,1.347.6H88.35l-.523,2.493h-1.97A4.192,4.192,0,0,1,83.2,2.9,3.674,3.674,0,0,1,82.117,0V-23.524a1.326,1.326,0,0,0-.362-1.066,1.065,1.065,0,0,0-.885-.221H77.814V-8.485a51.715,51.715,0,0,1-.422,6.615A54.285,54.285,0,0,1,76.367,3.9Z" transform="translate(103 46)" fill="#1f2873"/>
  <path id="小米LOGO圆形" d="M867.805,397.458l-.442-1.615-.144-.446-.316-.922-.469-1.2-.637-1.4-.5-.967-.95-1.559-.4-.586-.3-.41-1.264-1.521-1.5-1.475-.281-.243-.34-.285-1.647-1.216-1.2-.744-1-.546-2.27-1.031-.144-.056-.055-.022-.124-.047-2.431-.8-.908-.241-1.47-.334-.442-.087-1.547-.27-1.445-.2-.643-.076-1.375-.131-1.158-.089-1.218-.069-1.087-.047-1.01-.033-1.474-.031-.979-.011H829.7l-.981.011-1.474.031-1.01.033-1.087.047-1.218.069-1.158.089-1.373.131-.643.076-1.448.2-1.547.27-.442.087-1.472.334-.906.241-2.431.8-.122.047-.055.022-.146.056-2.261,1.018-1,.546-1.194.744-1.655,1.223-.334.278-.281.243-1.5,1.484-1.264,1.521-.3.41-.411.577-.948,1.559-.5.967-.637,1.4-.469,1.2-.316.927-.144.446-.442,1.615-.27,1.183-.06.276-.084.423-.378,2.295-.1.806-.113,1.029L797.4,404.8l-.08,1.152-.066,1.3-.035.891-.035,1.337-.024,1.395v7.786l.024,1.392.035,1.337.035.891.066,1.3.08,1.149.119,1.337.113,1.029.1.806.378,2.3.084.421.06.278.272,1.176.442,1.615.144.446.316.924.469,1.2.636,1.4.5.965.948,1.559.4.584.3.41,1.264,1.522,1.5,1.475.281.243.34.285,1.647,1.219,1.2.742,1,.546,2.261,1.018.146.058.055.02.122.047,2.431.8.906.241,1.472.334.442.087,1.547.27,1.448.2.643.074,1.372.134,1.158.087,1.218.071,1.087.047,1.01.031,1.474.031h8.894l1.474-.031,1.01-.031,1.087-.047,1.218-.071,1.158-.087,1.375-.134.643-.074,1.445-.2,1.547-.27.442-.087,1.47-.334.908-.241,2.431-.8.124-.047.055-.02.144-.058L856.4,447.2l1-.546,1.2-.742,1.647-1.219.34-.285.281-.243,1.5-1.475,1.264-1.522.3-.41.4-.584.95-1.559.5-.965.636-1.4.469-1.2.316-.924.144-.446.442-1.615.274-1.176.057-.278.084-.421.378-2.3.1-.806.113-1.029.122-1.337.077-1.149.069-1.3.033-.891.038-1.337.022-1.392v-7.775l-.022-1.395-.038-1.337-.033-.891-.069-1.3-.077-1.152-.122-1.337-.113-1.029-.1-.806-.378-2.294-.084-.423-.049-.287Z" transform="translate(-797.16 -378.75)" fill="url(#linear-gradient)"/>
  <rect id="左" width="14.062" height="32.141" rx="7.031" transform="translate(16.406 25.002) rotate(-45)" fill="#fff"/>
  <rect id="右" width="14.062" height="30.132" rx="7.031" transform="translate(50.262 16.332) rotate(45)" fill="#fff"/>
  <rect id="下" width="14.062" height="32.141" rx="7.031" transform="translate(34.096 28.607) rotate(15)" fill="#fff"/>
</svg>
